<svg width="1363" height="163" viewBox="0 0 1363 163" fill="none" xmlns="http://www.w3.org/2000/svg">
<path d="M0 15C0 6.71573 6.71573 0 15 0H37V163H15C6.71573 163 0 156.284 0 148V15Z" fill="#0095FF"/>
<rect width="1097" height="163" transform="translate(37)" fill="#F0F0F0"/>
<path d="M101.906 53.9219L94.3945 51.2383V48.0859L104.602 52.375V54.6367L101.906 53.9219ZM94.3945 56.1719L101.918 53.4297L104.602 52.7852V55.0352L94.3945 59.3242V56.1719ZM119.543 54.918H115.195V52.1758H119.543C120.215 52.1758 120.762 52.0664 121.184 51.8477C121.605 51.6211 121.914 51.3086 122.109 50.9102C122.305 50.5117 122.402 50.0625 122.402 49.5625C122.402 49.0547 122.305 48.582 122.109 48.1445C121.914 47.707 121.605 47.3555 121.184 47.0898C120.762 46.8242 120.215 46.6914 119.543 46.6914H116.414V61H112.898V43.9375H119.543C120.879 43.9375 122.023 44.1797 122.977 44.6641C123.938 45.1406 124.672 45.8008 125.18 46.6445C125.688 47.4883 125.941 48.4531 125.941 49.5391C125.941 50.6406 125.688 51.5938 125.18 52.3984C124.672 53.2031 123.938 53.8242 122.977 54.2617C122.023 54.6992 120.879 54.918 119.543 54.918ZM131.531 51.0859V61H128.156V48.3203H131.332L131.531 51.0859ZM135.352 48.2383L135.293 51.3672C135.129 51.3438 134.93 51.3242 134.695 51.3086C134.469 51.2852 134.262 51.2734 134.074 51.2734C133.598 51.2734 133.184 51.3359 132.832 51.4609C132.488 51.5781 132.199 51.7539 131.965 51.9883C131.738 52.2227 131.566 52.5078 131.449 52.8438C131.34 53.1797 131.277 53.5625 131.262 53.9922L130.582 53.7812C130.582 52.9609 130.664 52.207 130.828 51.5195C130.992 50.8242 131.23 50.2188 131.543 49.7031C131.863 49.1875 132.254 48.7891 132.715 48.5078C133.176 48.2266 133.703 48.0859 134.297 48.0859C134.484 48.0859 134.676 48.1016 134.871 48.1328C135.066 48.1562 135.227 48.1914 135.352 48.2383ZM142.547 61.2344C141.562 61.2344 140.68 61.0781 139.898 60.7656C139.117 60.4453 138.453 60.0039 137.906 59.4414C137.367 58.8789 136.953 58.2266 136.664 57.4844C136.375 56.7344 136.23 55.9375 136.23 55.0938V54.625C136.23 53.6641 136.367 52.7852 136.641 51.9883C136.914 51.1914 137.305 50.5 137.812 49.9141C138.328 49.3281 138.953 48.8789 139.688 48.5664C140.422 48.2461 141.25 48.0859 142.172 48.0859C143.07 48.0859 143.867 48.2344 144.562 48.5312C145.258 48.8281 145.84 49.25 146.309 49.7969C146.785 50.3438 147.145 51 147.387 51.7656C147.629 52.5234 147.75 53.3672 147.75 54.2969V55.7031H137.672V53.4531H144.434V53.1953C144.434 52.7266 144.348 52.3086 144.176 51.9414C144.012 51.5664 143.762 51.2695 143.426 51.0508C143.09 50.832 142.66 50.7227 142.137 50.7227C141.691 50.7227 141.309 50.8203 140.988 51.0156C140.668 51.2109 140.406 51.4844 140.203 51.8359C140.008 52.1875 139.859 52.6016 139.758 53.0781C139.664 53.5469 139.617 54.0625 139.617 54.625V55.0938C139.617 55.6016 139.688 56.0703 139.828 56.5C139.977 56.9297 140.184 57.3008 140.449 57.6133C140.723 57.9258 141.051 58.168 141.434 58.3398C141.824 58.5117 142.266 58.5977 142.758 58.5977C143.367 58.5977 143.934 58.4805 144.457 58.2461C144.988 58.0039 145.445 57.6406 145.828 57.1562L147.469 58.9375C147.203 59.3203 146.84 59.6875 146.379 60.0391C145.926 60.3906 145.379 60.6797 144.738 60.9062C144.098 61.125 143.367 61.2344 142.547 61.2344ZM157.16 58.2344V43H160.559V61H157.5L157.16 58.2344ZM149.145 54.8125V54.5664C149.145 53.5977 149.254 52.7188 149.473 51.9297C149.691 51.1328 150.012 50.4492 150.434 49.8789C150.855 49.3086 151.375 48.8672 151.992 48.5547C152.609 48.2422 153.312 48.0859 154.102 48.0859C154.844 48.0859 155.492 48.2422 156.047 48.5547C156.609 48.8672 157.086 49.3125 157.477 49.8906C157.875 50.4609 158.195 51.1367 158.438 51.918C158.68 52.6914 158.855 53.5391 158.965 54.4609V55C158.855 55.8828 158.68 56.7031 158.438 57.4609C158.195 58.2188 157.875 58.8828 157.477 59.4531C157.086 60.0156 156.609 60.4531 156.047 60.7656C155.484 61.0781 154.828 61.2344 154.078 61.2344C153.289 61.2344 152.586 61.0742 151.969 60.7539C151.359 60.4336 150.844 59.9844 150.422 59.4062C150.008 58.8281 149.691 58.1484 149.473 57.3672C149.254 56.5859 149.145 55.7344 149.145 54.8125ZM152.52 54.5664V54.8125C152.52 55.3359 152.559 55.8242 152.637 56.2773C152.723 56.7305 152.859 57.1328 153.047 57.4844C153.242 57.8281 153.492 58.0977 153.797 58.293C154.109 58.4805 154.488 58.5742 154.934 58.5742C155.512 58.5742 155.988 58.4453 156.363 58.1875C156.738 57.9219 157.023 57.5586 157.219 57.0977C157.422 56.6367 157.539 56.1055 157.57 55.5039V53.9688C157.547 53.4766 157.477 53.0352 157.359 52.6445C157.25 52.2461 157.086 51.9062 156.867 51.625C156.656 51.3438 156.391 51.125 156.07 50.9688C155.758 50.8125 155.387 50.7344 154.957 50.7344C154.52 50.7344 154.145 50.8359 153.832 51.0391C153.52 51.2344 153.266 51.5039 153.07 51.8477C152.883 52.1914 152.742 52.5977 152.648 53.0664C152.562 53.5273 152.52 54.0273 152.52 54.5664ZM166.758 48.3203V61H163.371V48.3203H166.758ZM163.16 45.0156C163.16 44.5234 163.332 44.1172 163.676 43.7969C164.02 43.4766 164.48 43.3164 165.059 43.3164C165.629 43.3164 166.086 43.4766 166.43 43.7969C166.781 44.1172 166.957 44.5234 166.957 45.0156C166.957 45.5078 166.781 45.9141 166.43 46.2344C166.086 46.5547 165.629 46.7148 165.059 46.7148C164.48 46.7148 164.02 46.5547 163.676 46.2344C163.332 45.9141 163.16 45.5078 163.16 45.0156ZM174.785 58.5977C175.199 58.5977 175.566 58.5195 175.887 58.3633C176.207 58.1992 176.457 57.9727 176.637 57.6836C176.824 57.3867 176.922 57.0391 176.93 56.6406H180.105C180.098 57.5312 179.859 58.3242 179.391 59.0195C178.922 59.707 178.293 60.25 177.504 60.6484C176.715 61.0391 175.832 61.2344 174.855 61.2344C173.871 61.2344 173.012 61.0703 172.277 60.7422C171.551 60.4141 170.945 59.9609 170.461 59.3828C169.977 58.7969 169.613 58.1172 169.371 57.3438C169.129 56.5625 169.008 55.7266 169.008 54.8359V54.4961C169.008 53.5977 169.129 52.7617 169.371 51.9883C169.613 51.207 169.977 50.5273 170.461 49.9492C170.945 49.3633 171.551 48.9062 172.277 48.5781C173.004 48.25 173.855 48.0859 174.832 48.0859C175.871 48.0859 176.781 48.2852 177.562 48.6836C178.352 49.082 178.969 49.6523 179.414 50.3945C179.867 51.1289 180.098 52 180.105 53.0078H176.93C176.922 52.5859 176.832 52.2031 176.66 51.8594C176.496 51.5156 176.254 51.2422 175.934 51.0391C175.621 50.8281 175.234 50.7227 174.773 50.7227C174.281 50.7227 173.879 50.8281 173.566 51.0391C173.254 51.2422 173.012 51.5234 172.84 51.8828C172.668 52.2344 172.547 52.6367 172.477 53.0898C172.414 53.5352 172.383 54.0039 172.383 54.4961V54.8359C172.383 55.3281 172.414 55.8008 172.477 56.2539C172.539 56.707 172.656 57.1094 172.828 57.4609C173.008 57.8125 173.254 58.0898 173.566 58.293C173.879 58.4961 174.285 58.5977 174.785 58.5977ZM188.273 48.3203V50.7109H180.891V48.3203H188.273ZM182.719 45.1914H186.094V57.1797C186.094 57.5469 186.141 57.8281 186.234 58.0234C186.336 58.2188 186.484 58.3555 186.68 58.4336C186.875 58.5039 187.121 58.5391 187.418 58.5391C187.629 58.5391 187.816 58.5312 187.98 58.5156C188.152 58.4922 188.297 58.4688 188.414 58.4453L188.426 60.9297C188.137 61.0234 187.824 61.0977 187.488 61.1523C187.152 61.207 186.781 61.2344 186.375 61.2344C185.633 61.2344 184.984 61.1133 184.43 60.8711C183.883 60.6211 183.461 60.2227 183.164 59.6758C182.867 59.1289 182.719 58.4102 182.719 57.5195V45.1914ZM203.027 54.918H198.68V52.1758H203.027C203.699 52.1758 204.246 52.0664 204.668 51.8477C205.09 51.6211 205.398 51.3086 205.594 50.9102C205.789 50.5117 205.887 50.0625 205.887 49.5625C205.887 49.0547 205.789 48.582 205.594 48.1445C205.398 47.707 205.09 47.3555 204.668 47.0898C204.246 46.8242 203.699 46.6914 203.027 46.6914H199.898V61H196.383V43.9375H203.027C204.363 43.9375 205.508 44.1797 206.461 44.6641C207.422 45.1406 208.156 45.8008 208.664 46.6445C209.172 47.4883 209.426 48.4531 209.426 49.5391C209.426 50.6406 209.172 51.5938 208.664 52.3984C208.156 53.2031 207.422 53.8242 206.461 54.2617C205.508 54.6992 204.363 54.918 203.027 54.918ZM215.016 51.0859V61H211.641V48.3203H214.816L215.016 51.0859ZM218.836 48.2383L218.777 51.3672C218.613 51.3438 218.414 51.3242 218.18 51.3086C217.953 51.2852 217.746 51.2734 217.559 51.2734C217.082 51.2734 216.668 51.3359 216.316 51.4609C215.973 51.5781 215.684 51.7539 215.449 51.9883C215.223 52.2227 215.051 52.5078 214.934 52.8438C214.824 53.1797 214.762 53.5625 214.746 53.9922L214.066 53.7812C214.066 52.9609 214.148 52.207 214.312 51.5195C214.477 50.8242 214.715 50.2188 215.027 49.7031C215.348 49.1875 215.738 48.7891 216.199 48.5078C216.66 48.2266 217.188 48.0859 217.781 48.0859C217.969 48.0859 218.16 48.1016 218.355 48.1328C218.551 48.1562 218.711 48.1914 218.836 48.2383ZM219.539 54.7891V54.543C219.539 53.6133 219.672 52.7578 219.938 51.9766C220.203 51.1875 220.59 50.5039 221.098 49.9258C221.605 49.3477 222.23 48.8984 222.973 48.5781C223.715 48.25 224.566 48.0859 225.527 48.0859C226.488 48.0859 227.344 48.25 228.094 48.5781C228.844 48.8984 229.473 49.3477 229.98 49.9258C230.496 50.5039 230.887 51.1875 231.152 51.9766C231.418 52.7578 231.551 53.6133 231.551 54.543V54.7891C231.551 55.7109 231.418 56.5664 231.152 57.3555C230.887 58.1367 230.496 58.8203 229.98 59.4062C229.473 59.9844 228.848 60.4336 228.105 60.7539C227.363 61.0742 226.512 61.2344 225.551 61.2344C224.59 61.2344 223.734 61.0742 222.984 60.7539C222.242 60.4336 221.613 59.9844 221.098 59.4062C220.59 58.8203 220.203 58.1367 219.938 57.3555C219.672 56.5664 219.539 55.7109 219.539 54.7891ZM222.914 54.543V54.7891C222.914 55.3203 222.961 55.8164 223.055 56.2773C223.148 56.7383 223.297 57.1445 223.5 57.4961C223.711 57.8398 223.984 58.1094 224.32 58.3047C224.656 58.5 225.066 58.5977 225.551 58.5977C226.02 58.5977 226.422 58.5 226.758 58.3047C227.094 58.1094 227.363 57.8398 227.566 57.4961C227.77 57.1445 227.918 56.7383 228.012 56.2773C228.113 55.8164 228.164 55.3203 228.164 54.7891V54.543C228.164 54.0273 228.113 53.543 228.012 53.0898C227.918 52.6289 227.766 52.2227 227.555 51.8711C227.352 51.5117 227.082 51.2305 226.746 51.0273C226.41 50.8242 226.004 50.7227 225.527 50.7227C225.051 50.7227 224.645 50.8242 224.309 51.0273C223.98 51.2305 223.711 51.5117 223.5 51.8711C223.297 52.2227 223.148 52.6289 223.055 53.0898C222.961 53.543 222.914 54.0273 222.914 54.543Z" fill="#888888"/>
<path d="M109.219 107.422H100.734V101.07H109.219C110.375 101.07 111.312 100.875 112.031 100.484C112.75 100.094 113.273 99.5547 113.602 98.8672C113.945 98.1641 114.117 97.375 114.117 96.5C114.117 95.5625 113.945 94.6953 113.602 93.8984C113.273 93.1016 112.75 92.4609 112.031 91.9766C111.312 91.4766 110.375 91.2266 109.219 91.2266H103.828V119H95.6016V84.875H109.219C111.953 84.875 114.305 85.375 116.273 86.375C118.258 87.375 119.781 88.75 120.844 90.5C121.906 92.2344 122.438 94.2188 122.438 96.4531C122.438 98.6562 121.906 100.578 120.844 102.219C119.781 103.859 118.258 105.141 116.273 106.062C114.305 106.969 111.953 107.422 109.219 107.422ZM138.445 119.469C136.383 119.469 134.539 119.148 132.914 118.508C131.289 117.852 129.914 116.953 128.789 115.812C127.68 114.672 126.828 113.359 126.234 111.875C125.656 110.391 125.367 108.82 125.367 107.164V106.273C125.367 104.414 125.625 102.695 126.141 101.117C126.656 99.5234 127.422 98.1328 128.438 96.9453C129.453 95.7578 130.727 94.8359 132.258 94.1797C133.789 93.5078 135.57 93.1719 137.602 93.1719C139.398 93.1719 141.008 93.4609 142.43 94.0391C143.852 94.6172 145.055 95.4453 146.039 96.5234C147.039 97.6016 147.797 98.9062 148.312 100.438C148.844 101.969 149.109 103.688 149.109 105.594V108.805H128.391V103.859H141.398V103.25C141.414 102.406 141.266 101.688 140.953 101.094C140.656 100.5 140.219 100.047 139.641 99.7344C139.062 99.4219 138.359 99.2656 137.531 99.2656C136.672 99.2656 135.961 99.4531 135.398 99.8281C134.852 100.203 134.422 100.719 134.109 101.375C133.812 102.016 133.602 102.758 133.477 103.602C133.352 104.445 133.289 105.336 133.289 106.273V107.164C133.289 108.102 133.414 108.953 133.664 109.719C133.93 110.484 134.305 111.141 134.789 111.688C135.289 112.219 135.883 112.633 136.57 112.93C137.273 113.227 138.07 113.375 138.961 113.375C140.039 113.375 141.102 113.172 142.148 112.766C143.195 112.359 144.094 111.688 144.844 110.75L148.43 115.016C147.914 115.75 147.18 116.461 146.227 117.148C145.289 117.836 144.164 118.398 142.852 118.836C141.539 119.258 140.07 119.469 138.445 119.469ZM160.289 99.9219V119H152.391V93.6406H159.773L160.289 99.9219ZM167.789 93.4531L167.648 100.789C167.336 100.758 166.914 100.719 166.383 100.672C165.852 100.625 165.406 100.602 165.047 100.602C164.125 100.602 163.328 100.711 162.656 100.93C162 101.133 161.453 101.445 161.016 101.867C160.594 102.273 160.281 102.789 160.078 103.414C159.891 104.039 159.805 104.766 159.82 105.594L158.391 104.656C158.391 102.953 158.555 101.406 158.883 100.016C159.227 98.6094 159.711 97.3984 160.336 96.3828C160.961 95.3516 161.719 94.5625 162.609 94.0156C163.5 93.4531 164.5 93.1719 165.609 93.1719C166 93.1719 166.383 93.1953 166.758 93.2422C167.148 93.2891 167.492 93.3594 167.789 93.4531ZM180.703 119H172.758V91.5781C172.758 89.6094 173.156 87.9531 173.953 86.6094C174.75 85.2656 175.875 84.25 177.328 83.5625C178.781 82.8594 180.5 82.5078 182.484 82.5078C183.172 82.5078 183.82 82.5547 184.43 82.6484C185.039 82.7422 185.633 82.8594 186.211 83L186.234 88.8125C185.953 88.7344 185.664 88.6797 185.367 88.6484C185.07 88.6172 184.703 88.6016 184.266 88.6016C183.5 88.6016 182.852 88.7188 182.32 88.9531C181.789 89.1719 181.383 89.5078 181.102 89.9609C180.836 90.3984 180.703 90.9375 180.703 91.5781V119ZM185.625 93.6406V99.125H169.102V93.6406H185.625ZM187.477 106.578V106.086C187.477 104.227 187.742 102.516 188.273 100.953C188.805 99.375 189.586 98.0078 190.617 96.8516C191.648 95.6953 192.922 94.7969 194.438 94.1562C195.953 93.5 197.703 93.1719 199.688 93.1719C201.688 93.1719 203.445 93.5 204.961 94.1562C206.492 94.7969 207.773 95.6953 208.805 96.8516C209.836 98.0078 210.617 99.375 211.148 100.953C211.68 102.516 211.945 104.227 211.945 106.086V106.578C211.945 108.422 211.68 110.133 211.148 111.711C210.617 113.273 209.836 114.641 208.805 115.812C207.773 116.969 206.5 117.867 204.984 118.508C203.469 119.148 201.719 119.469 199.734 119.469C197.75 119.469 195.992 119.148 194.461 118.508C192.93 117.867 191.648 116.969 190.617 115.812C189.586 114.641 188.805 113.273 188.273 111.711C187.742 110.133 187.477 108.422 187.477 106.578ZM195.375 106.086V106.578C195.375 107.531 195.445 108.422 195.586 109.25C195.727 110.078 195.961 110.805 196.289 111.43C196.617 112.039 197.062 112.516 197.625 112.859C198.188 113.203 198.891 113.375 199.734 113.375C200.562 113.375 201.25 113.203 201.797 112.859C202.359 112.516 202.805 112.039 203.133 111.43C203.461 110.805 203.695 110.078 203.836 109.25C203.977 108.422 204.047 107.531 204.047 106.578V106.086C204.047 105.164 203.977 104.297 203.836 103.484C203.695 102.656 203.461 101.93 203.133 101.305C202.805 100.664 202.359 100.164 201.797 99.8047C201.234 99.4453 200.531 99.2656 199.688 99.2656C198.859 99.2656 198.164 99.4453 197.602 99.8047C197.055 100.164 196.617 100.664 196.289 101.305C195.961 101.93 195.727 102.656 195.586 103.484C195.445 104.297 195.375 105.164 195.375 106.086ZM223.43 99.9219V119H215.531V93.6406H222.914L223.43 99.9219ZM230.93 93.4531L230.789 100.789C230.477 100.758 230.055 100.719 229.523 100.672C228.992 100.625 228.547 100.602 228.188 100.602C227.266 100.602 226.469 100.711 225.797 100.93C225.141 101.133 224.594 101.445 224.156 101.867C223.734 102.273 223.422 102.789 223.219 103.414C223.031 104.039 222.945 104.766 222.961 105.594L221.531 104.656C221.531 102.953 221.695 101.406 222.023 100.016C222.367 98.6094 222.852 97.3984 223.477 96.3828C224.102 95.3516 224.859 94.5625 225.75 94.0156C226.641 93.4531 227.641 93.1719 228.75 93.1719C229.141 93.1719 229.523 93.1953 229.898 93.2422C230.289 93.2891 230.633 93.3594 230.93 93.4531ZM241.617 99.0078V119H233.719V93.6406H241.125L241.617 99.0078ZM240.656 105.453L238.852 105.5C238.852 103.719 239.062 102.078 239.484 100.578C239.906 99.0781 240.531 97.7734 241.359 96.6641C242.188 95.5547 243.203 94.6953 244.406 94.0859C245.625 93.4766 247.031 93.1719 248.625 93.1719C249.734 93.1719 250.742 93.3438 251.648 93.6875C252.555 94.0156 253.336 94.5391 253.992 95.2578C254.648 95.9609 255.148 96.8828 255.492 98.0234C255.852 99.1484 256.031 100.5 256.031 102.078V119H248.133V103.086C248.133 102.008 248.008 101.195 247.758 100.648C247.523 100.102 247.18 99.7344 246.727 99.5469C246.273 99.3594 245.719 99.2656 245.062 99.2656C244.375 99.2656 243.758 99.4219 243.211 99.7344C242.664 100.047 242.195 100.484 241.805 101.047C241.43 101.594 241.141 102.242 240.938 102.992C240.75 103.742 240.656 104.562 240.656 105.453ZM255.141 105.453L252.938 105.5C252.938 103.719 253.133 102.078 253.523 100.578C253.93 99.0781 254.531 97.7734 255.328 96.6641C256.141 95.5547 257.148 94.6953 258.352 94.0859C259.555 93.4766 260.953 93.1719 262.547 93.1719C263.703 93.1719 264.766 93.3438 265.734 93.6875C266.703 94.0312 267.539 94.5859 268.242 95.3516C268.945 96.1172 269.492 97.1328 269.883 98.3984C270.273 99.6484 270.469 101.195 270.469 103.039V119H262.547V103.039C262.547 101.992 262.422 101.203 262.172 100.672C261.938 100.125 261.594 99.7578 261.141 99.5703C260.688 99.3672 260.148 99.2656 259.523 99.2656C258.773 99.2656 258.125 99.4219 257.578 99.7344C257.031 100.047 256.57 100.484 256.195 101.047C255.836 101.594 255.57 102.242 255.398 102.992C255.227 103.742 255.141 104.562 255.141 105.453ZM288.164 112.625V102.172C288.164 101.453 288.062 100.836 287.859 100.32C287.656 99.8047 287.336 99.4062 286.898 99.125C286.461 98.8281 285.875 98.6797 285.141 98.6797C284.547 98.6797 284.039 98.7812 283.617 98.9844C283.195 99.1875 282.875 99.4922 282.656 99.8984C282.438 100.305 282.328 100.82 282.328 101.445H274.43C274.43 100.273 274.688 99.1875 275.203 98.1875C275.734 97.1719 276.484 96.2891 277.453 95.5391C278.438 94.7891 279.609 94.2109 280.969 93.8047C282.344 93.3828 283.875 93.1719 285.562 93.1719C287.578 93.1719 289.375 93.5078 290.953 94.1797C292.547 94.8516 293.805 95.8594 294.727 97.2031C295.648 98.5312 296.109 100.203 296.109 102.219V112.602C296.109 114.258 296.203 115.516 296.391 116.375C296.578 117.219 296.844 117.961 297.188 118.602V119H289.266C288.891 118.219 288.609 117.266 288.422 116.141C288.25 115 288.164 113.828 288.164 112.625ZM289.125 103.508L289.172 107.727H285.68C284.945 107.727 284.32 107.828 283.805 108.031C283.305 108.234 282.898 108.516 282.586 108.875C282.289 109.219 282.07 109.609 281.93 110.047C281.805 110.484 281.742 110.945 281.742 111.43C281.742 111.898 281.852 112.32 282.07 112.695C282.305 113.055 282.617 113.336 283.008 113.539C283.398 113.742 283.836 113.844 284.32 113.844C285.195 113.844 285.938 113.68 286.547 113.352C287.172 113.008 287.648 112.594 287.977 112.109C288.305 111.625 288.469 111.172 288.469 110.75L290.203 113.984C289.891 114.609 289.531 115.242 289.125 115.883C288.734 116.523 288.242 117.117 287.648 117.664C287.07 118.195 286.359 118.633 285.516 118.977C284.672 119.305 283.648 119.469 282.445 119.469C280.883 119.469 279.445 119.148 278.133 118.508C276.836 117.867 275.797 116.977 275.016 115.836C274.234 114.68 273.844 113.352 273.844 111.852C273.844 110.539 274.078 109.367 274.547 108.336C275.031 107.305 275.758 106.43 276.727 105.711C277.695 104.992 278.93 104.445 280.43 104.07C281.93 103.695 283.695 103.508 285.727 103.508H289.125ZM308.25 99.0547V119H300.352V93.6406H307.758L308.25 99.0547ZM307.312 105.453L305.461 105.5C305.461 103.562 305.695 101.836 306.164 100.32C306.633 98.7891 307.297 97.4922 308.156 96.4297C309.016 95.3672 310.039 94.5625 311.227 94.0156C312.43 93.4531 313.766 93.1719 315.234 93.1719C316.406 93.1719 317.477 93.3438 318.445 93.6875C319.43 94.0312 320.273 94.5859 320.977 95.3516C321.695 96.1172 322.242 97.1328 322.617 98.3984C323.008 99.6484 323.203 101.195 323.203 103.039V119H315.258V103.016C315.258 102 315.117 101.227 314.836 100.695C314.555 100.148 314.148 99.7734 313.617 99.5703C313.086 99.3672 312.438 99.2656 311.672 99.2656C310.859 99.2656 310.172 99.4219 309.609 99.7344C309.047 100.047 308.594 100.484 308.25 101.047C307.922 101.594 307.68 102.242 307.523 102.992C307.383 103.742 307.312 104.562 307.312 105.453ZM338.297 113.375C339.031 113.375 339.656 113.242 340.172 112.977C340.703 112.695 341.102 112.305 341.367 111.805C341.648 111.289 341.781 110.672 341.766 109.953H349.195C349.211 111.859 348.742 113.531 347.789 114.969C346.852 116.391 345.57 117.5 343.945 118.297C342.336 119.078 340.516 119.469 338.484 119.469C336.5 119.469 334.766 119.148 333.281 118.508C331.797 117.852 330.555 116.945 329.555 115.789C328.57 114.617 327.828 113.25 327.328 111.688C326.844 110.125 326.602 108.43 326.602 106.602V106.062C326.602 104.234 326.844 102.539 327.328 100.977C327.828 99.3984 328.57 98.0312 329.555 96.875C330.555 95.7031 331.789 94.7969 333.258 94.1562C334.742 93.5 336.469 93.1719 338.438 93.1719C340.547 93.1719 342.406 93.5703 344.016 94.3672C345.641 95.1641 346.914 96.3203 347.836 97.8359C348.758 99.3516 349.211 101.188 349.195 103.344H341.766C341.781 102.578 341.664 101.891 341.414 101.281C341.164 100.672 340.773 100.188 340.242 99.8281C339.727 99.4531 339.062 99.2656 338.25 99.2656C337.438 99.2656 336.781 99.4453 336.281 99.8047C335.781 100.164 335.398 100.664 335.133 101.305C334.883 101.93 334.711 102.648 334.617 103.461C334.539 104.273 334.5 105.141 334.5 106.062V106.602C334.5 107.539 334.539 108.422 334.617 109.25C334.711 110.062 334.891 110.781 335.156 111.406C335.422 112.016 335.805 112.5 336.305 112.859C336.805 113.203 337.469 113.375 338.297 113.375ZM364.852 119.469C362.789 119.469 360.945 119.148 359.32 118.508C357.695 117.852 356.32 116.953 355.195 115.812C354.086 114.672 353.234 113.359 352.641 111.875C352.062 110.391 351.773 108.82 351.773 107.164V106.273C351.773 104.414 352.031 102.695 352.547 101.117C353.062 99.5234 353.828 98.1328 354.844 96.9453C355.859 95.7578 357.133 94.8359 358.664 94.1797C360.195 93.5078 361.977 93.1719 364.008 93.1719C365.805 93.1719 367.414 93.4609 368.836 94.0391C370.258 94.6172 371.461 95.4453 372.445 96.5234C373.445 97.6016 374.203 98.9062 374.719 100.438C375.25 101.969 375.516 103.688 375.516 105.594V108.805H354.797V103.859H367.805V103.25C367.82 102.406 367.672 101.688 367.359 101.094C367.062 100.5 366.625 100.047 366.047 99.7344C365.469 99.4219 364.766 99.2656 363.938 99.2656C363.078 99.2656 362.367 99.4531 361.805 99.8281C361.258 100.203 360.828 100.719 360.516 101.375C360.219 102.016 360.008 102.758 359.883 103.602C359.758 104.445 359.695 105.336 359.695 106.273V107.164C359.695 108.102 359.82 108.953 360.07 109.719C360.336 110.484 360.711 111.141 361.195 111.688C361.695 112.219 362.289 112.633 362.977 112.93C363.68 113.227 364.477 113.375 365.367 113.375C366.445 113.375 367.508 113.172 368.555 112.766C369.602 112.359 370.5 111.688 371.25 110.75L374.836 115.016C374.32 115.75 373.586 116.461 372.633 117.148C371.695 117.836 370.57 118.398 369.258 118.836C367.945 119.258 366.477 119.469 364.852 119.469Z" fill="black"/>
<path d="M1134 0H1348C1356.28 0 1363 6.71573 1363 15V148C1363 156.284 1356.28 163 1348 163H1134V0Z" fill="#0095FF"/>
<path d="M1266.42 70.75L1255.51 87.1123C1253.98 89.4016 1250.55 89.1881 1249.32 86.7272L1247.68 83.4395C1246.45 80.9786 1243.02 80.7651 1241.49 83.0544L1230.58 99.4167" stroke="white" stroke-width="7.16667" stroke-linecap="round" stroke-linejoin="round"/>
<rect x="1216.25" y="49.25" width="64.5" height="64.5" rx="7.16667" stroke="white" stroke-width="7.16667"/>
</svg>
