<svg width="1363" height="163" viewBox="0 0 1363 163" fill="none" xmlns="http://www.w3.org/2000/svg">
<path d="M0 15C0 6.71573 6.71573 0 15 0H37V163H15C6.71573 163 0 156.284 0 148V15Z" fill="#0095FF"/>
<rect width="1097" height="163" transform="translate(37)" fill="#F0F0F0"/>
<path d="M101.906 53.9219L94.3945 51.2383V48.0859L104.602 52.375V54.6367L101.906 53.9219ZM94.3945 56.1719L101.918 53.4297L104.602 52.7852V55.0352L94.3945 59.3242V56.1719ZM119.543 54.918H115.195V52.1758H119.543C120.215 52.1758 120.762 52.0664 121.184 51.8477C121.605 51.6211 121.914 51.3086 122.109 50.9102C122.305 50.5117 122.402 50.0625 122.402 49.5625C122.402 49.0547 122.305 48.582 122.109 48.1445C121.914 47.707 121.605 47.3555 121.184 47.0898C120.762 46.8242 120.215 46.6914 119.543 46.6914H116.414V61H112.898V43.9375H119.543C120.879 43.9375 122.023 44.1797 122.977 44.6641C123.938 45.1406 124.672 45.8008 125.18 46.6445C125.688 47.4883 125.941 48.4531 125.941 49.5391C125.941 50.6406 125.688 51.5938 125.18 52.3984C124.672 53.2031 123.938 53.8242 122.977 54.2617C122.023 54.6992 120.879 54.918 119.543 54.918ZM131.531 51.0859V61H128.156V48.3203H131.332L131.531 51.0859ZM135.352 48.2383L135.293 51.3672C135.129 51.3438 134.93 51.3242 134.695 51.3086C134.469 51.2852 134.262 51.2734 134.074 51.2734C133.598 51.2734 133.184 51.3359 132.832 51.4609C132.488 51.5781 132.199 51.7539 131.965 51.9883C131.738 52.2227 131.566 52.5078 131.449 52.8438C131.34 53.1797 131.277 53.5625 131.262 53.9922L130.582 53.7812C130.582 52.9609 130.664 52.207 130.828 51.5195C130.992 50.8242 131.23 50.2188 131.543 49.7031C131.863 49.1875 132.254 48.7891 132.715 48.5078C133.176 48.2266 133.703 48.0859 134.297 48.0859C134.484 48.0859 134.676 48.1016 134.871 48.1328C135.066 48.1562 135.227 48.1914 135.352 48.2383ZM142.547 61.2344C141.562 61.2344 140.68 61.0781 139.898 60.7656C139.117 60.4453 138.453 60.0039 137.906 59.4414C137.367 58.8789 136.953 58.2266 136.664 57.4844C136.375 56.7344 136.23 55.9375 136.23 55.0938V54.625C136.23 53.6641 136.367 52.7852 136.641 51.9883C136.914 51.1914 137.305 50.5 137.812 49.9141C138.328 49.3281 138.953 48.8789 139.688 48.5664C140.422 48.2461 141.25 48.0859 142.172 48.0859C143.07 48.0859 143.867 48.2344 144.562 48.5312C145.258 48.8281 145.84 49.25 146.309 49.7969C146.785 50.3438 147.145 51 147.387 51.7656C147.629 52.5234 147.75 53.3672 147.75 54.2969V55.7031H137.672V53.4531H144.434V53.1953C144.434 52.7266 144.348 52.3086 144.176 51.9414C144.012 51.5664 143.762 51.2695 143.426 51.0508C143.09 50.832 142.66 50.7227 142.137 50.7227C141.691 50.7227 141.309 50.8203 140.988 51.0156C140.668 51.2109 140.406 51.4844 140.203 51.8359C140.008 52.1875 139.859 52.6016 139.758 53.0781C139.664 53.5469 139.617 54.0625 139.617 54.625V55.0938C139.617 55.6016 139.688 56.0703 139.828 56.5C139.977 56.9297 140.184 57.3008 140.449 57.6133C140.723 57.9258 141.051 58.168 141.434 58.3398C141.824 58.5117 142.266 58.5977 142.758 58.5977C143.367 58.5977 143.934 58.4805 144.457 58.2461C144.988 58.0039 145.445 57.6406 145.828 57.1562L147.469 58.9375C147.203 59.3203 146.84 59.6875 146.379 60.0391C145.926 60.3906 145.379 60.6797 144.738 60.9062C144.098 61.125 143.367 61.2344 142.547 61.2344ZM157.16 58.2344V43H160.559V61H157.5L157.16 58.2344ZM149.145 54.8125V54.5664C149.145 53.5977 149.254 52.7188 149.473 51.9297C149.691 51.1328 150.012 50.4492 150.434 49.8789C150.855 49.3086 151.375 48.8672 151.992 48.5547C152.609 48.2422 153.312 48.0859 154.102 48.0859C154.844 48.0859 155.492 48.2422 156.047 48.5547C156.609 48.8672 157.086 49.3125 157.477 49.8906C157.875 50.4609 158.195 51.1367 158.438 51.918C158.68 52.6914 158.855 53.5391 158.965 54.4609V55C158.855 55.8828 158.68 56.7031 158.438 57.4609C158.195 58.2188 157.875 58.8828 157.477 59.4531C157.086 60.0156 156.609 60.4531 156.047 60.7656C155.484 61.0781 154.828 61.2344 154.078 61.2344C153.289 61.2344 152.586 61.0742 151.969 60.7539C151.359 60.4336 150.844 59.9844 150.422 59.4062C150.008 58.8281 149.691 58.1484 149.473 57.3672C149.254 56.5859 149.145 55.7344 149.145 54.8125ZM152.52 54.5664V54.8125C152.52 55.3359 152.559 55.8242 152.637 56.2773C152.723 56.7305 152.859 57.1328 153.047 57.4844C153.242 57.8281 153.492 58.0977 153.797 58.293C154.109 58.4805 154.488 58.5742 154.934 58.5742C155.512 58.5742 155.988 58.4453 156.363 58.1875C156.738 57.9219 157.023 57.5586 157.219 57.0977C157.422 56.6367 157.539 56.1055 157.57 55.5039V53.9688C157.547 53.4766 157.477 53.0352 157.359 52.6445C157.25 52.2461 157.086 51.9062 156.867 51.625C156.656 51.3438 156.391 51.125 156.07 50.9688C155.758 50.8125 155.387 50.7344 154.957 50.7344C154.52 50.7344 154.145 50.8359 153.832 51.0391C153.52 51.2344 153.266 51.5039 153.07 51.8477C152.883 52.1914 152.742 52.5977 152.648 53.0664C152.562 53.5273 152.52 54.0273 152.52 54.5664ZM166.758 48.3203V61H163.371V48.3203H166.758ZM163.16 45.0156C163.16 44.5234 163.332 44.1172 163.676 43.7969C164.02 43.4766 164.48 43.3164 165.059 43.3164C165.629 43.3164 166.086 43.4766 166.43 43.7969C166.781 44.1172 166.957 44.5234 166.957 45.0156C166.957 45.5078 166.781 45.9141 166.43 46.2344C166.086 46.5547 165.629 46.7148 165.059 46.7148C164.48 46.7148 164.02 46.5547 163.676 46.2344C163.332 45.9141 163.16 45.5078 163.16 45.0156ZM174.785 58.5977C175.199 58.5977 175.566 58.5195 175.887 58.3633C176.207 58.1992 176.457 57.9727 176.637 57.6836C176.824 57.3867 176.922 57.0391 176.93 56.6406H180.105C180.098 57.5312 179.859 58.3242 179.391 59.0195C178.922 59.707 178.293 60.25 177.504 60.6484C176.715 61.0391 175.832 61.2344 174.855 61.2344C173.871 61.2344 173.012 61.0703 172.277 60.7422C171.551 60.4141 170.945 59.9609 170.461 59.3828C169.977 58.7969 169.613 58.1172 169.371 57.3438C169.129 56.5625 169.008 55.7266 169.008 54.8359V54.4961C169.008 53.5977 169.129 52.7617 169.371 51.9883C169.613 51.207 169.977 50.5273 170.461 49.9492C170.945 49.3633 171.551 48.9062 172.277 48.5781C173.004 48.25 173.855 48.0859 174.832 48.0859C175.871 48.0859 176.781 48.2852 177.562 48.6836C178.352 49.082 178.969 49.6523 179.414 50.3945C179.867 51.1289 180.098 52 180.105 53.0078H176.93C176.922 52.5859 176.832 52.2031 176.66 51.8594C176.496 51.5156 176.254 51.2422 175.934 51.0391C175.621 50.8281 175.234 50.7227 174.773 50.7227C174.281 50.7227 173.879 50.8281 173.566 51.0391C173.254 51.2422 173.012 51.5234 172.84 51.8828C172.668 52.2344 172.547 52.6367 172.477 53.0898C172.414 53.5352 172.383 54.0039 172.383 54.4961V54.8359C172.383 55.3281 172.414 55.8008 172.477 56.2539C172.539 56.707 172.656 57.1094 172.828 57.4609C173.008 57.8125 173.254 58.0898 173.566 58.293C173.879 58.4961 174.285 58.5977 174.785 58.5977ZM188.273 48.3203V50.7109H180.891V48.3203H188.273ZM182.719 45.1914H186.094V57.1797C186.094 57.5469 186.141 57.8281 186.234 58.0234C186.336 58.2188 186.484 58.3555 186.68 58.4336C186.875 58.5039 187.121 58.5391 187.418 58.5391C187.629 58.5391 187.816 58.5312 187.98 58.5156C188.152 58.4922 188.297 58.4688 188.414 58.4453L188.426 60.9297C188.137 61.0234 187.824 61.0977 187.488 61.1523C187.152 61.207 186.781 61.2344 186.375 61.2344C185.633 61.2344 184.984 61.1133 184.43 60.8711C183.883 60.6211 183.461 60.2227 183.164 59.6758C182.867 59.1289 182.719 58.4102 182.719 57.5195V45.1914ZM203.027 54.918H198.68V52.1758H203.027C203.699 52.1758 204.246 52.0664 204.668 51.8477C205.09 51.6211 205.398 51.3086 205.594 50.9102C205.789 50.5117 205.887 50.0625 205.887 49.5625C205.887 49.0547 205.789 48.582 205.594 48.1445C205.398 47.707 205.09 47.3555 204.668 47.0898C204.246 46.8242 203.699 46.6914 203.027 46.6914H199.898V61H196.383V43.9375H203.027C204.363 43.9375 205.508 44.1797 206.461 44.6641C207.422 45.1406 208.156 45.8008 208.664 46.6445C209.172 47.4883 209.426 48.4531 209.426 49.5391C209.426 50.6406 209.172 51.5938 208.664 52.3984C208.156 53.2031 207.422 53.8242 206.461 54.2617C205.508 54.6992 204.363 54.918 203.027 54.918ZM215.016 51.0859V61H211.641V48.3203H214.816L215.016 51.0859ZM218.836 48.2383L218.777 51.3672C218.613 51.3438 218.414 51.3242 218.18 51.3086C217.953 51.2852 217.746 51.2734 217.559 51.2734C217.082 51.2734 216.668 51.3359 216.316 51.4609C215.973 51.5781 215.684 51.7539 215.449 51.9883C215.223 52.2227 215.051 52.5078 214.934 52.8438C214.824 53.1797 214.762 53.5625 214.746 53.9922L214.066 53.7812C214.066 52.9609 214.148 52.207 214.312 51.5195C214.477 50.8242 214.715 50.2188 215.027 49.7031C215.348 49.1875 215.738 48.7891 216.199 48.5078C216.66 48.2266 217.188 48.0859 217.781 48.0859C217.969 48.0859 218.16 48.1016 218.355 48.1328C218.551 48.1562 218.711 48.1914 218.836 48.2383ZM219.539 54.7891V54.543C219.539 53.6133 219.672 52.7578 219.938 51.9766C220.203 51.1875 220.59 50.5039 221.098 49.9258C221.605 49.3477 222.23 48.8984 222.973 48.5781C223.715 48.25 224.566 48.0859 225.527 48.0859C226.488 48.0859 227.344 48.25 228.094 48.5781C228.844 48.8984 229.473 49.3477 229.98 49.9258C230.496 50.5039 230.887 51.1875 231.152 51.9766C231.418 52.7578 231.551 53.6133 231.551 54.543V54.7891C231.551 55.7109 231.418 56.5664 231.152 57.3555C230.887 58.1367 230.496 58.8203 229.98 59.4062C229.473 59.9844 228.848 60.4336 228.105 60.7539C227.363 61.0742 226.512 61.2344 225.551 61.2344C224.59 61.2344 223.734 61.0742 222.984 60.7539C222.242 60.4336 221.613 59.9844 221.098 59.4062C220.59 58.8203 220.203 58.1367 219.938 57.3555C219.672 56.5664 219.539 55.7109 219.539 54.7891ZM222.914 54.543V54.7891C222.914 55.3203 222.961 55.8164 223.055 56.2773C223.148 56.7383 223.297 57.1445 223.5 57.4961C223.711 57.8398 223.984 58.1094 224.32 58.3047C224.656 58.5 225.066 58.5977 225.551 58.5977C226.02 58.5977 226.422 58.5 226.758 58.3047C227.094 58.1094 227.363 57.8398 227.566 57.4961C227.77 57.1445 227.918 56.7383 228.012 56.2773C228.113 55.8164 228.164 55.3203 228.164 54.7891V54.543C228.164 54.0273 228.113 53.543 228.012 53.0898C227.918 52.6289 227.766 52.2227 227.555 51.8711C227.352 51.5117 227.082 51.2305 226.746 51.0273C226.41 50.8242 226.004 50.7227 225.527 50.7227C225.051 50.7227 224.645 50.8242 224.309 51.0273C223.98 51.2305 223.711 51.5117 223.5 51.8711C223.297 52.2227 223.148 52.6289 223.055 53.0898C222.961 53.543 222.914 54.0273 222.914 54.543Z" fill="#888888"/>
<path d="M106.688 119H99.1172L99.1641 112.672H106.688C108.25 112.672 109.57 112.297 110.648 111.547C111.742 110.797 112.57 109.68 113.133 108.195C113.711 106.695 114 104.852 114 102.664V101.188C114 99.5469 113.836 98.1094 113.508 96.875C113.195 95.625 112.727 94.5859 112.102 93.7578C111.477 92.9141 110.695 92.2812 109.758 91.8594C108.836 91.4375 107.773 91.2266 106.57 91.2266H98.9766V84.875H106.57C108.883 84.875 111 85.2734 112.922 86.0703C114.859 86.8516 116.531 87.9766 117.938 89.4453C119.359 90.8984 120.453 92.625 121.219 94.625C122 96.6094 122.391 98.8125 122.391 101.234V102.664C122.391 105.07 122 107.273 121.219 109.273C120.453 111.273 119.367 113 117.961 114.453C116.555 115.906 114.891 117.031 112.969 117.828C111.062 118.609 108.969 119 106.688 119ZM103.828 84.875V119H95.6016V84.875H103.828ZM138.586 119.469C136.523 119.469 134.68 119.148 133.055 118.508C131.43 117.852 130.055 116.953 128.93 115.812C127.82 114.672 126.969 113.359 126.375 111.875C125.797 110.391 125.508 108.82 125.508 107.164V106.273C125.508 104.414 125.766 102.695 126.281 101.117C126.797 99.5234 127.562 98.1328 128.578 96.9453C129.594 95.7578 130.867 94.8359 132.398 94.1797C133.93 93.5078 135.711 93.1719 137.742 93.1719C139.539 93.1719 141.148 93.4609 142.57 94.0391C143.992 94.6172 145.195 95.4453 146.18 96.5234C147.18 97.6016 147.938 98.9062 148.453 100.438C148.984 101.969 149.25 103.688 149.25 105.594V108.805H128.531V103.859H141.539V103.25C141.555 102.406 141.406 101.688 141.094 101.094C140.797 100.5 140.359 100.047 139.781 99.7344C139.203 99.4219 138.5 99.2656 137.672 99.2656C136.812 99.2656 136.102 99.4531 135.539 99.8281C134.992 100.203 134.562 100.719 134.25 101.375C133.953 102.016 133.742 102.758 133.617 103.602C133.492 104.445 133.43 105.336 133.43 106.273V107.164C133.43 108.102 133.555 108.953 133.805 109.719C134.07 110.484 134.445 111.141 134.93 111.688C135.43 112.219 136.023 112.633 136.711 112.93C137.414 113.227 138.211 113.375 139.102 113.375C140.18 113.375 141.242 113.172 142.289 112.766C143.336 112.359 144.234 111.688 144.984 110.75L148.57 115.016C148.055 115.75 147.32 116.461 146.367 117.148C145.43 117.836 144.305 118.398 142.992 118.836C141.68 119.258 140.211 119.469 138.586 119.469ZM160.43 99.0078V119H152.531V93.6406H159.938L160.43 99.0078ZM159.469 105.453L157.664 105.5C157.664 103.719 157.875 102.078 158.297 100.578C158.719 99.0781 159.344 97.7734 160.172 96.6641C161 95.5547 162.016 94.6953 163.219 94.0859C164.438 93.4766 165.844 93.1719 167.438 93.1719C168.547 93.1719 169.555 93.3438 170.461 93.6875C171.367 94.0156 172.148 94.5391 172.805 95.2578C173.461 95.9609 173.961 96.8828 174.305 98.0234C174.664 99.1484 174.844 100.5 174.844 102.078V119H166.945V103.086C166.945 102.008 166.82 101.195 166.57 100.648C166.336 100.102 165.992 99.7344 165.539 99.5469C165.086 99.3594 164.531 99.2656 163.875 99.2656C163.188 99.2656 162.57 99.4219 162.023 99.7344C161.477 100.047 161.008 100.484 160.617 101.047C160.242 101.594 159.953 102.242 159.75 102.992C159.562 103.742 159.469 104.562 159.469 105.453ZM173.953 105.453L171.75 105.5C171.75 103.719 171.945 102.078 172.336 100.578C172.742 99.0781 173.344 97.7734 174.141 96.6641C174.953 95.5547 175.961 94.6953 177.164 94.0859C178.367 93.4766 179.766 93.1719 181.359 93.1719C182.516 93.1719 183.578 93.3438 184.547 93.6875C185.516 94.0312 186.352 94.5859 187.055 95.3516C187.758 96.1172 188.305 97.1328 188.695 98.3984C189.086 99.6484 189.281 101.195 189.281 103.039V119H181.359V103.039C181.359 101.992 181.234 101.203 180.984 100.672C180.75 100.125 180.406 99.7578 179.953 99.5703C179.5 99.3672 178.961 99.2656 178.336 99.2656C177.586 99.2656 176.938 99.4219 176.391 99.7344C175.844 100.047 175.383 100.484 175.008 101.047C174.648 101.594 174.383 102.242 174.211 102.992C174.039 103.742 173.953 104.562 173.953 105.453ZM192.82 106.578V106.086C192.82 104.227 193.086 102.516 193.617 100.953C194.148 99.375 194.93 98.0078 195.961 96.8516C196.992 95.6953 198.266 94.7969 199.781 94.1562C201.297 93.5 203.047 93.1719 205.031 93.1719C207.031 93.1719 208.789 93.5 210.305 94.1562C211.836 94.7969 213.117 95.6953 214.148 96.8516C215.18 98.0078 215.961 99.375 216.492 100.953C217.023 102.516 217.289 104.227 217.289 106.086V106.578C217.289 108.422 217.023 110.133 216.492 111.711C215.961 113.273 215.18 114.641 214.148 115.812C213.117 116.969 211.844 117.867 210.328 118.508C208.812 119.148 207.062 119.469 205.078 119.469C203.094 119.469 201.336 119.148 199.805 118.508C198.273 117.867 196.992 116.969 195.961 115.812C194.93 114.641 194.148 113.273 193.617 111.711C193.086 110.133 192.82 108.422 192.82 106.578ZM200.719 106.086V106.578C200.719 107.531 200.789 108.422 200.93 109.25C201.07 110.078 201.305 110.805 201.633 111.43C201.961 112.039 202.406 112.516 202.969 112.859C203.531 113.203 204.234 113.375 205.078 113.375C205.906 113.375 206.594 113.203 207.141 112.859C207.703 112.516 208.148 112.039 208.477 111.43C208.805 110.805 209.039 110.078 209.18 109.25C209.32 108.422 209.391 107.531 209.391 106.578V106.086C209.391 105.164 209.32 104.297 209.18 103.484C209.039 102.656 208.805 101.93 208.477 101.305C208.148 100.664 207.703 100.164 207.141 99.8047C206.578 99.4453 205.875 99.2656 205.031 99.2656C204.203 99.2656 203.508 99.4453 202.945 99.8047C202.398 100.164 201.961 100.664 201.633 101.305C201.305 101.93 201.07 102.656 200.93 103.484C200.789 104.297 200.719 105.164 200.719 106.086Z" fill="black"/>
<path d="M1134 0H1348C1356.28 0 1363 6.71573 1363 15V148C1363 156.284 1356.28 163 1348 163H1134V0Z" fill="#0095FF"/>
<path d="M1281 46.5H1216L1213.5 49V114L1216 116.5H1281L1283.5 114V49L1281 46.5ZM1278.5 111.5H1233.5V101.5H1245C1246.5 104.5 1250 106.5 1253.5 106.5C1259 106.5 1263.5 102 1263.5 96.5C1263.5 91 1259 86.5 1253.5 86.5C1248 86.5 1243.5 91 1243.5 96.5H1228.5V111.5H1218.5V51.5H1228.5V63C1225.5 64.5 1223.5 68 1223.5 71.5C1223.5 77 1228 81.5 1233.5 81.5C1239 81.5 1243.5 77 1243.5 71.5H1253.5C1253.5 77 1258 81.5 1263.5 81.5C1269 81.5 1273.5 77 1273.5 71.5C1273.5 66 1269 61.5 1263.5 61.5C1260 61.5 1256.5 63.5 1255 66.5H1242C1240.5 63.5 1237 61.5 1233.5 61.5V51.5H1278.5V111.5ZM1248.5 96.5C1248.5 93.5 1250.5 91.5 1253.5 91.5C1256.5 91.5 1258.5 93.5 1258.5 96.5C1258.5 99.5 1256.5 101.5 1253.5 101.5C1250.5 101.5 1248.5 99.5 1248.5 96.5ZM1233.5 66.5C1236.5 66.5 1238.5 68.5 1238.5 71.5C1238.5 74.5 1236.5 76.5 1233.5 76.5C1230.5 76.5 1228.5 74.5 1228.5 71.5C1228.5 68.5 1230.5 66.5 1233.5 66.5ZM1263.5 66.5C1266.5 66.5 1268.5 68.5 1268.5 71.5C1268.5 74.5 1266.5 76.5 1263.5 76.5C1260.5 76.5 1258.5 74.5 1258.5 71.5C1258.5 68.5 1260.5 66.5 1263.5 66.5Z" fill="white"/>
</svg>
