<svg width="1363" height="297" viewBox="0 0 1363 297" fill="none" xmlns="http://www.w3.org/2000/svg">
<path d="M0 15C0 6.71573 6.71573 0 15 0H37V297H15C6.71573 297 0 290.284 0 282V15Z" fill="#0095FF"/>
<path d="M37 0H1363V297H37V0Z" fill="#F0F0F0"/>
<path d="M108.609 68.3027C108.609 67.8457 108.539 67.4355 108.398 67.0723C108.27 66.6973 108.023 66.3574 107.66 66.0527C107.297 65.7363 106.787 65.4258 106.131 65.1211C105.475 64.8164 104.625 64.5 103.582 64.1719C102.422 63.7969 101.32 63.375 100.277 62.9062C99.2461 62.4375 98.332 61.8926 97.5352 61.2715C96.75 60.6387 96.1289 59.9062 95.6719 59.0742C95.2266 58.2422 95.0039 57.2754 95.0039 56.1738C95.0039 55.1074 95.2383 54.1406 95.707 53.2734C96.1758 52.3945 96.832 51.6445 97.6758 51.0234C98.5195 50.3906 99.5156 49.9043 100.664 49.5645C101.824 49.2246 103.096 49.0547 104.479 49.0547C106.365 49.0547 108.012 49.3945 109.418 50.0742C110.824 50.7539 111.914 51.6855 112.688 52.8691C113.473 54.0527 113.865 55.4062 113.865 56.9297H108.627C108.627 56.1797 108.469 55.5234 108.152 54.9609C107.848 54.3867 107.379 53.9355 106.746 53.6074C106.125 53.2793 105.34 53.1152 104.391 53.1152C103.477 53.1152 102.715 53.2559 102.105 53.5371C101.496 53.8066 101.039 54.1758 100.734 54.6445C100.43 55.1016 100.277 55.6172 100.277 56.1914C100.277 56.625 100.383 57.0176 100.594 57.3691C100.816 57.7207 101.145 58.0488 101.578 58.3535C102.012 58.6582 102.545 58.9453 103.178 59.2148C103.811 59.4844 104.543 59.748 105.375 60.0059C106.77 60.4277 107.994 60.9023 109.049 61.4297C110.115 61.957 111.006 62.5488 111.721 63.2051C112.436 63.8613 112.975 64.6055 113.338 65.4375C113.701 66.2695 113.883 67.2129 113.883 68.2676C113.883 69.3809 113.666 70.377 113.232 71.2559C112.799 72.1348 112.172 72.8789 111.352 73.4883C110.531 74.0977 109.553 74.5605 108.416 74.877C107.279 75.1934 106.008 75.3516 104.602 75.3516C103.336 75.3516 102.088 75.1875 100.857 74.8594C99.627 74.5195 98.5078 74.0098 97.5 73.3301C96.5039 72.6504 95.707 71.7832 95.1094 70.7285C94.5117 69.6738 94.2129 68.4258 94.2129 66.9844H99.5039C99.5039 67.7812 99.627 68.4551 99.873 69.0059C100.119 69.5566 100.465 70.002 100.91 70.3418C101.367 70.6816 101.906 70.9277 102.527 71.0801C103.16 71.2324 103.852 71.3086 104.602 71.3086C105.516 71.3086 106.266 71.1797 106.852 70.9219C107.449 70.6641 107.889 70.3066 108.17 69.8496C108.463 69.3926 108.609 68.877 108.609 68.3027ZM127.418 70.7109V62.2383C127.418 61.6289 127.318 61.1074 127.119 60.6738C126.92 60.2285 126.609 59.8828 126.188 59.6367C125.777 59.3906 125.244 59.2676 124.588 59.2676C124.025 59.2676 123.539 59.3672 123.129 59.5664C122.719 59.7539 122.402 60.0293 122.18 60.3926C121.957 60.7441 121.846 61.1602 121.846 61.6406H116.783C116.783 60.832 116.971 60.0645 117.346 59.3379C117.721 58.6113 118.266 57.9727 118.98 57.4219C119.695 56.8594 120.545 56.4199 121.529 56.1035C122.525 55.7871 123.639 55.6289 124.869 55.6289C126.346 55.6289 127.658 55.875 128.807 56.3672C129.955 56.8594 130.857 57.5977 131.514 58.582C132.182 59.5664 132.516 60.7969 132.516 62.2734V70.4121C132.516 71.4551 132.58 72.3105 132.709 72.9785C132.838 73.6348 133.025 74.209 133.271 74.7012V75H128.156C127.91 74.4844 127.723 73.8398 127.594 73.0664C127.477 72.2812 127.418 71.4961 127.418 70.7109ZM128.086 63.416L128.121 66.2812H125.291C124.623 66.2812 124.043 66.3574 123.551 66.5098C123.059 66.6621 122.654 66.8789 122.338 67.1602C122.021 67.4297 121.787 67.7461 121.635 68.1094C121.494 68.4727 121.424 68.8711 121.424 69.3047C121.424 69.7383 121.523 70.1309 121.723 70.4824C121.922 70.8223 122.209 71.0918 122.584 71.291C122.959 71.4785 123.398 71.5723 123.902 71.5723C124.664 71.5723 125.326 71.4199 125.889 71.1152C126.451 70.8105 126.885 70.4355 127.189 69.9902C127.506 69.5449 127.67 69.123 127.682 68.7246L129.018 70.8691C128.83 71.3496 128.572 71.8477 128.244 72.3633C127.928 72.8789 127.523 73.3652 127.031 73.8223C126.539 74.2676 125.947 74.6367 125.256 74.9297C124.564 75.2109 123.744 75.3516 122.795 75.3516C121.588 75.3516 120.492 75.1113 119.508 74.6309C118.535 74.1387 117.762 73.4648 117.188 72.6094C116.625 71.7422 116.344 70.7578 116.344 69.6562C116.344 68.6602 116.531 67.7754 116.906 67.002C117.281 66.2285 117.832 65.5781 118.559 65.0508C119.297 64.5117 120.217 64.1074 121.318 63.8379C122.42 63.5566 123.697 63.416 125.15 63.416H128.086ZM141.762 48V75H136.682V48H141.762ZM151.289 48V75H146.209V48H151.289ZM161.115 72.8555L166.16 55.9805H171.592L163.945 77.8652C163.781 78.3457 163.559 78.8613 163.277 79.4121C163.008 79.9629 162.639 80.4844 162.17 80.9766C161.713 81.4805 161.133 81.8906 160.43 82.207C159.738 82.5234 158.889 82.6816 157.881 82.6816C157.4 82.6816 157.008 82.6523 156.703 82.5938C156.398 82.5352 156.035 82.4531 155.613 82.3477V78.6387C155.742 78.6387 155.877 78.6387 156.018 78.6387C156.158 78.6504 156.293 78.6562 156.422 78.6562C157.09 78.6562 157.635 78.5801 158.057 78.4277C158.479 78.2754 158.818 78.041 159.076 77.7246C159.334 77.4199 159.539 77.0215 159.691 76.5293L161.115 72.8555ZM159.006 55.9805L163.137 69.7617L163.857 75.123L160.412 75.4922L153.574 55.9805H159.006ZM193.301 53.7832L186.34 75H180.732L190.242 49.4062H193.811L193.301 53.7832ZM199.084 75L192.105 53.7832L191.543 49.4062H195.146L204.709 75H199.084ZM198.768 65.4727V69.6035H185.25V65.4727H198.768ZM206.766 48H211.828V70.6406L211.318 75H206.766V48ZM223.869 65.2969V65.666C223.869 67.084 223.717 68.3848 223.412 69.5684C223.119 70.752 222.662 71.7773 222.041 72.6445C221.42 73.5 220.646 74.168 219.721 74.6484C218.807 75.1172 217.729 75.3516 216.486 75.3516C215.326 75.3516 214.318 75.1172 213.463 74.6484C212.619 74.1797 211.91 73.5176 211.336 72.6621C210.762 71.8066 210.299 70.8047 209.947 69.6562C209.596 68.5078 209.332 67.2539 209.156 65.8945V65.0859C209.332 63.7266 209.596 62.4727 209.947 61.3242C210.299 60.1758 210.762 59.1738 211.336 58.3184C211.91 57.4629 212.619 56.8008 213.463 56.332C214.307 55.8633 215.303 55.6289 216.451 55.6289C217.705 55.6289 218.795 55.8691 219.721 56.3496C220.658 56.8184 221.432 57.4863 222.041 58.3535C222.662 59.209 223.119 60.2285 223.412 61.4121C223.717 62.584 223.869 63.8789 223.869 65.2969ZM218.807 65.666V65.2969C218.807 64.5234 218.748 63.7969 218.631 63.1172C218.525 62.4258 218.338 61.8223 218.068 61.3066C217.799 60.7793 217.43 60.3633 216.961 60.0586C216.504 59.7539 215.912 59.6016 215.186 59.6016C214.494 59.6016 213.908 59.7188 213.428 59.9531C212.947 60.1875 212.549 60.5156 212.232 60.9375C211.928 61.3594 211.699 61.8633 211.547 62.4492C211.395 63.0234 211.301 63.6562 211.266 64.3477V66.6504C211.301 67.5762 211.453 68.3965 211.723 69.1113C212.004 69.8145 212.426 70.3711 212.988 70.7812C213.562 71.1797 214.307 71.3789 215.221 71.3789C215.936 71.3789 216.527 71.2383 216.996 70.957C217.465 70.6758 217.828 70.2773 218.086 69.7617C218.355 69.2461 218.543 68.6426 218.648 67.9512C218.754 67.248 218.807 66.4863 218.807 65.666ZM238.248 70.8516V48H243.346V75H238.758L238.248 70.8516ZM226.225 65.7188V65.3496C226.225 63.8965 226.389 62.5781 226.717 61.3945C227.045 60.1992 227.525 59.1738 228.158 58.3184C228.791 57.4629 229.57 56.8008 230.496 56.332C231.422 55.8633 232.477 55.6289 233.66 55.6289C234.773 55.6289 235.746 55.8633 236.578 56.332C237.422 56.8008 238.137 57.4688 238.723 58.3359C239.32 59.1914 239.801 60.2051 240.164 61.377C240.527 62.5371 240.791 63.8086 240.955 65.1914V66C240.791 67.3242 240.527 68.5547 240.164 69.6914C239.801 70.8281 239.32 71.8242 238.723 72.6797C238.137 73.5234 237.422 74.1797 236.578 74.6484C235.734 75.1172 234.75 75.3516 233.625 75.3516C232.441 75.3516 231.387 75.1113 230.461 74.6309C229.547 74.1504 228.773 73.4766 228.141 72.6094C227.52 71.7422 227.045 70.7227 226.717 69.5508C226.389 68.3789 226.225 67.1016 226.225 65.7188ZM231.287 65.3496V65.7188C231.287 66.5039 231.346 67.2363 231.463 67.916C231.592 68.5957 231.797 69.1992 232.078 69.7266C232.371 70.2422 232.746 70.6465 233.203 70.9395C233.672 71.2207 234.24 71.3613 234.908 71.3613C235.775 71.3613 236.49 71.168 237.053 70.7812C237.615 70.3828 238.043 69.8379 238.336 69.1465C238.641 68.4551 238.816 67.6582 238.863 66.7559V64.4531C238.828 63.7148 238.723 63.0527 238.547 62.4668C238.383 61.8691 238.137 61.3594 237.809 60.9375C237.492 60.5156 237.094 60.1875 236.613 59.9531C236.145 59.7188 235.588 59.6016 234.943 59.6016C234.287 59.6016 233.725 59.7539 233.256 60.0586C232.787 60.3516 232.406 60.7559 232.113 61.2715C231.832 61.7871 231.621 62.3965 231.48 63.0996C231.352 63.791 231.287 64.541 231.287 65.3496ZM266.988 53.7832L260.027 75H254.42L263.93 49.4062H267.498L266.988 53.7832ZM272.771 75L265.793 53.7832L265.23 49.4062H268.834L278.396 75H272.771ZM272.455 65.4727V69.6035H258.938V65.4727H272.455ZM285.797 48V75H280.717V48H285.797ZM294.92 48V75H289.857V48H294.92ZM294.199 64.8223H292.811C292.822 63.498 292.998 62.2793 293.338 61.166C293.678 60.041 294.164 59.0684 294.797 58.248C295.43 57.416 296.186 56.7715 297.064 56.3145C297.955 55.8574 298.939 55.6289 300.018 55.6289C300.955 55.6289 301.805 55.7637 302.566 56.0332C303.34 56.291 304.002 56.7129 304.553 57.2988C305.115 57.873 305.549 58.6289 305.854 59.5664C306.158 60.5039 306.311 61.6406 306.311 62.9766V75H301.213V62.9414C301.213 62.0977 301.09 61.4355 300.844 60.9551C300.609 60.4629 300.264 60.1172 299.807 59.918C299.361 59.707 298.811 59.6016 298.154 59.6016C297.428 59.6016 296.807 59.7363 296.291 60.0059C295.787 60.2754 295.383 60.6504 295.078 61.1309C294.773 61.5996 294.551 62.1504 294.41 62.7832C294.27 63.416 294.199 64.0957 294.199 64.8223ZM320.426 70.7109V62.2383C320.426 61.6289 320.326 61.1074 320.127 60.6738C319.928 60.2285 319.617 59.8828 319.195 59.6367C318.785 59.3906 318.252 59.2676 317.596 59.2676C317.033 59.2676 316.547 59.3672 316.137 59.5664C315.727 59.7539 315.41 60.0293 315.188 60.3926C314.965 60.7441 314.854 61.1602 314.854 61.6406H309.791C309.791 60.832 309.979 60.0645 310.354 59.3379C310.729 58.6113 311.273 57.9727 311.988 57.4219C312.703 56.8594 313.553 56.4199 314.537 56.1035C315.533 55.7871 316.646 55.6289 317.877 55.6289C319.354 55.6289 320.666 55.875 321.814 56.3672C322.963 56.8594 323.865 57.5977 324.521 58.582C325.189 59.5664 325.523 60.7969 325.523 62.2734V70.4121C325.523 71.4551 325.588 72.3105 325.717 72.9785C325.846 73.6348 326.033 74.209 326.279 74.7012V75H321.164C320.918 74.4844 320.73 73.8398 320.602 73.0664C320.484 72.2812 320.426 71.4961 320.426 70.7109ZM321.094 63.416L321.129 66.2812H318.299C317.631 66.2812 317.051 66.3574 316.559 66.5098C316.066 66.6621 315.662 66.8789 315.346 67.1602C315.029 67.4297 314.795 67.7461 314.643 68.1094C314.502 68.4727 314.432 68.8711 314.432 69.3047C314.432 69.7383 314.531 70.1309 314.73 70.4824C314.93 70.8223 315.217 71.0918 315.592 71.291C315.967 71.4785 316.406 71.5723 316.91 71.5723C317.672 71.5723 318.334 71.4199 318.896 71.1152C319.459 70.8105 319.893 70.4355 320.197 69.9902C320.514 69.5449 320.678 69.123 320.689 68.7246L322.025 70.8691C321.838 71.3496 321.58 71.8477 321.252 72.3633C320.936 72.8789 320.531 73.3652 320.039 73.8223C319.547 74.2676 318.955 74.6367 318.264 74.9297C317.572 75.2109 316.752 75.3516 315.803 75.3516C314.596 75.3516 313.5 75.1113 312.516 74.6309C311.543 74.1387 310.77 73.4648 310.195 72.6094C309.633 71.7422 309.352 70.7578 309.352 69.6562C309.352 68.6602 309.539 67.7754 309.914 67.002C310.289 66.2285 310.84 65.5781 311.566 65.0508C312.305 64.5117 313.225 64.1074 314.326 63.8379C315.428 63.5566 316.705 63.416 318.158 63.416H321.094ZM335.877 75H330.779V54.293C330.779 52.8516 331.061 51.6387 331.623 50.6543C332.197 49.6582 333 48.9082 334.031 48.4043C335.074 47.8887 336.311 47.6309 337.74 47.6309C338.209 47.6309 338.66 47.666 339.094 47.7363C339.527 47.7949 339.949 47.8711 340.359 47.9648L340.307 51.7793C340.084 51.7207 339.85 51.6797 339.604 51.6562C339.357 51.6328 339.07 51.6211 338.742 51.6211C338.133 51.6211 337.611 51.7266 337.178 51.9375C336.756 52.1367 336.434 52.4355 336.211 52.834C335.988 53.2324 335.877 53.7188 335.877 54.293V75ZM339.674 55.9805V59.5664H327.949V55.9805H339.674ZM350.66 75.3516C349.184 75.3516 347.859 75.1172 346.688 74.6484C345.516 74.168 344.52 73.5059 343.699 72.6621C342.891 71.8184 342.27 70.8398 341.836 69.7266C341.402 68.6016 341.186 67.4062 341.186 66.1406V65.4375C341.186 63.9961 341.391 62.6777 341.801 61.4824C342.211 60.2871 342.797 59.25 343.559 58.3711C344.332 57.4922 345.27 56.8184 346.371 56.3496C347.473 55.8691 348.715 55.6289 350.098 55.6289C351.445 55.6289 352.641 55.8516 353.684 56.2969C354.727 56.7422 355.6 57.375 356.303 58.1953C357.018 59.0156 357.557 60 357.92 61.1484C358.283 62.2852 358.465 63.5508 358.465 64.9453V67.0547H343.348V63.6797H353.49V63.293C353.49 62.5898 353.361 61.9629 353.104 61.4121C352.857 60.8496 352.482 60.4043 351.979 60.0762C351.475 59.748 350.83 59.584 350.045 59.584C349.377 59.584 348.803 59.7305 348.322 60.0234C347.842 60.3164 347.449 60.7266 347.145 61.2539C346.852 61.7812 346.629 62.4023 346.477 63.1172C346.336 63.8203 346.266 64.5938 346.266 65.4375V66.1406C346.266 66.9023 346.371 67.6055 346.582 68.25C346.805 68.8945 347.115 69.4512 347.514 69.9199C347.924 70.3887 348.416 70.752 348.99 71.0098C349.576 71.2676 350.238 71.3965 350.977 71.3965C351.891 71.3965 352.74 71.2207 353.525 70.8691C354.322 70.5059 355.008 69.9609 355.582 69.2344L358.043 71.9062C357.645 72.4805 357.1 73.0312 356.408 73.5586C355.729 74.0859 354.908 74.5195 353.947 74.8594C352.986 75.1875 351.891 75.3516 350.66 75.3516ZM370.102 75.3516C368.625 75.3516 367.301 75.1172 366.129 74.6484C364.957 74.168 363.961 73.5059 363.141 72.6621C362.332 71.8184 361.711 70.8398 361.277 69.7266C360.844 68.6016 360.627 67.4062 360.627 66.1406V65.4375C360.627 63.9961 360.832 62.6777 361.242 61.4824C361.652 60.2871 362.238 59.25 363 58.3711C363.773 57.4922 364.711 56.8184 365.812 56.3496C366.914 55.8691 368.156 55.6289 369.539 55.6289C370.887 55.6289 372.082 55.8516 373.125 56.2969C374.168 56.7422 375.041 57.375 375.744 58.1953C376.459 59.0156 376.998 60 377.361 61.1484C377.725 62.2852 377.906 63.5508 377.906 64.9453V67.0547H362.789V63.6797H372.932V63.293C372.932 62.5898 372.803 61.9629 372.545 61.4121C372.299 60.8496 371.924 60.4043 371.42 60.0762C370.916 59.748 370.271 59.584 369.486 59.584C368.818 59.584 368.244 59.7305 367.764 60.0234C367.283 60.3164 366.891 60.7266 366.586 61.2539C366.293 61.7812 366.07 62.4023 365.918 63.1172C365.777 63.8203 365.707 64.5938 365.707 65.4375V66.1406C365.707 66.9023 365.812 67.6055 366.023 68.25C366.246 68.8945 366.557 69.4512 366.955 69.9199C367.365 70.3887 367.857 70.752 368.432 71.0098C369.018 71.2676 369.68 71.3965 370.418 71.3965C371.332 71.3965 372.182 71.2207 372.967 70.8691C373.764 70.5059 374.449 69.9609 375.023 69.2344L377.484 71.9062C377.086 72.4805 376.541 73.0312 375.85 73.5586C375.17 74.0859 374.35 74.5195 373.389 74.8594C372.428 75.1875 371.332 75.3516 370.102 75.3516ZM395.924 71.0449V75H381.475V71.0449H395.924ZM395.643 58.8984L383.514 75H380.121V71.9941L392.197 55.9805H395.643V58.8984ZM393.85 55.9805V59.9531H380.402V55.9805H393.85Z" fill="#888888"/>
<path d="M111.922 126.492H102.023V119.082H111.922C113.271 119.082 114.365 118.854 115.203 118.398C116.042 117.943 116.652 117.314 117.035 116.512C117.436 115.691 117.637 114.771 117.637 113.75C117.637 112.656 117.436 111.645 117.035 110.715C116.652 109.785 116.042 109.038 115.203 108.473C114.365 107.889 113.271 107.598 111.922 107.598H105.633V140H96.0352V100.188H111.922C115.112 100.188 117.855 100.771 120.152 101.938C122.467 103.104 124.245 104.708 125.484 106.75C126.724 108.773 127.344 111.089 127.344 113.695C127.344 116.266 126.724 118.508 125.484 120.422C124.245 122.336 122.467 123.831 120.152 124.906C117.855 125.964 115.112 126.492 111.922 126.492ZM141.371 117.742V140H132.156V110.414H140.77L141.371 117.742ZM150.121 110.195L149.957 118.754C149.592 118.717 149.1 118.672 148.48 118.617C147.861 118.562 147.341 118.535 146.922 118.535C145.846 118.535 144.917 118.663 144.133 118.918C143.367 119.155 142.729 119.52 142.219 120.012C141.727 120.486 141.362 121.087 141.125 121.816C140.906 122.546 140.806 123.393 140.824 124.359L139.156 123.266C139.156 121.279 139.348 119.474 139.73 117.852C140.132 116.211 140.697 114.798 141.426 113.613C142.155 112.41 143.039 111.49 144.078 110.852C145.117 110.195 146.284 109.867 147.578 109.867C148.034 109.867 148.48 109.895 148.918 109.949C149.374 110.004 149.775 110.086 150.121 110.195ZM167.074 140.547C164.668 140.547 162.517 140.173 160.621 139.426C158.725 138.66 157.121 137.612 155.809 136.281C154.514 134.951 153.521 133.419 152.828 131.688C152.154 129.956 151.816 128.124 151.816 126.191V125.152C151.816 122.983 152.117 120.978 152.719 119.137C153.32 117.277 154.214 115.655 155.398 114.27C156.583 112.884 158.069 111.809 159.855 111.043C161.642 110.259 163.72 109.867 166.09 109.867C168.186 109.867 170.064 110.204 171.723 110.879C173.382 111.553 174.785 112.52 175.934 113.777C177.1 115.035 177.984 116.557 178.586 118.344C179.206 120.13 179.516 122.135 179.516 124.359V128.105H155.344V122.336H170.52V121.625C170.538 120.641 170.365 119.802 170 119.109C169.654 118.417 169.143 117.888 168.469 117.523C167.794 117.159 166.974 116.977 166.008 116.977C165.005 116.977 164.176 117.195 163.52 117.633C162.882 118.07 162.38 118.672 162.016 119.438C161.669 120.185 161.423 121.051 161.277 122.035C161.132 123.02 161.059 124.059 161.059 125.152V126.191C161.059 127.285 161.204 128.279 161.496 129.172C161.806 130.065 162.243 130.831 162.809 131.469C163.392 132.089 164.085 132.572 164.887 132.918C165.707 133.264 166.637 133.438 167.676 133.438C168.934 133.438 170.173 133.201 171.395 132.727C172.616 132.253 173.664 131.469 174.539 130.375L178.723 135.352C178.121 136.208 177.264 137.038 176.152 137.84C175.059 138.642 173.746 139.298 172.215 139.809C170.684 140.301 168.97 140.547 167.074 140.547ZM200.27 133.219V98H209.539V140H201.227L200.27 133.219ZM182.113 125.562V124.988C182.113 122.746 182.359 120.704 182.852 118.863C183.344 117.004 184.073 115.409 185.039 114.078C186.005 112.729 187.208 111.69 188.648 110.961C190.089 110.232 191.747 109.867 193.625 109.867C195.302 109.867 196.77 110.259 198.027 111.043C199.285 111.809 200.361 112.884 201.254 114.27C202.147 115.655 202.876 117.277 203.441 119.137C204.007 120.978 204.435 122.965 204.727 125.098V125.781C204.435 127.786 204.007 129.682 203.441 131.469C202.876 133.237 202.147 134.805 201.254 136.172C200.361 137.539 199.276 138.615 198 139.398C196.742 140.164 195.266 140.547 193.57 140.547C191.693 140.547 190.034 140.173 188.594 139.426C187.172 138.678 185.978 137.63 185.012 136.281C184.064 134.932 183.344 133.346 182.852 131.523C182.359 129.701 182.113 127.714 182.113 125.562ZM191.328 124.988V125.562C191.328 126.674 191.401 127.704 191.547 128.652C191.693 129.6 191.939 130.439 192.285 131.168C192.65 131.879 193.124 132.435 193.707 132.836C194.309 133.237 195.047 133.438 195.922 133.438C197.107 133.438 198.082 133.155 198.848 132.59C199.632 132.025 200.206 131.223 200.57 130.184C200.953 129.145 201.117 127.923 201.062 126.52V124.359C201.099 123.156 201.017 122.099 200.816 121.188C200.616 120.258 200.297 119.483 199.859 118.863C199.44 118.243 198.902 117.779 198.246 117.469C197.608 117.141 196.852 116.977 195.977 116.977C195.12 116.977 194.391 117.177 193.789 117.578C193.206 117.979 192.732 118.544 192.367 119.273C192.003 119.984 191.738 120.832 191.574 121.816C191.41 122.783 191.328 123.84 191.328 124.988ZM224.496 110.414V140H215.254V110.414H224.496ZM214.707 102.785C214.707 101.473 215.181 100.397 216.129 99.5586C217.077 98.7201 218.307 98.3008 219.82 98.3008C221.333 98.3008 222.564 98.7201 223.512 99.5586C224.46 100.397 224.934 101.473 224.934 102.785C224.934 104.098 224.46 105.173 223.512 106.012C222.564 106.85 221.333 107.27 219.82 107.27C218.307 107.27 217.077 106.85 216.129 106.012C215.181 105.173 214.707 104.098 214.707 102.785ZM242.68 133.438C243.536 133.438 244.266 133.283 244.867 132.973C245.487 132.645 245.952 132.189 246.262 131.605C246.59 131.004 246.745 130.284 246.727 129.445H255.395C255.413 131.669 254.866 133.62 253.754 135.297C252.66 136.956 251.165 138.25 249.27 139.18C247.392 140.091 245.268 140.547 242.898 140.547C240.583 140.547 238.56 140.173 236.828 139.426C235.096 138.66 233.647 137.603 232.48 136.254C231.332 134.887 230.466 133.292 229.883 131.469C229.318 129.646 229.035 127.668 229.035 125.535V124.906C229.035 122.773 229.318 120.796 229.883 118.973C230.466 117.132 231.332 115.536 232.48 114.188C233.647 112.82 235.087 111.763 236.801 111.016C238.533 110.25 240.547 109.867 242.844 109.867C245.305 109.867 247.474 110.332 249.352 111.262C251.247 112.191 252.733 113.54 253.809 115.309C254.884 117.077 255.413 119.219 255.395 121.734H246.727C246.745 120.841 246.608 120.039 246.316 119.328C246.025 118.617 245.569 118.052 244.949 117.633C244.348 117.195 243.573 116.977 242.625 116.977C241.677 116.977 240.911 117.186 240.328 117.605C239.745 118.025 239.298 118.608 238.988 119.355C238.697 120.085 238.496 120.923 238.387 121.871C238.296 122.819 238.25 123.831 238.25 124.906V125.535C238.25 126.629 238.296 127.659 238.387 128.625C238.496 129.573 238.706 130.411 239.016 131.141C239.326 131.852 239.772 132.417 240.355 132.836C240.939 133.237 241.714 133.438 242.68 133.438ZM274.918 110.414V116.812H257.09V110.414H274.918ZM260.836 103.059H270.051V130.348C270.051 131.132 270.142 131.742 270.324 132.18C270.507 132.599 270.816 132.9 271.254 133.082C271.71 133.246 272.311 133.328 273.059 133.328C273.587 133.328 274.025 133.319 274.371 133.301C274.717 133.264 275.046 133.219 275.355 133.164V139.754C274.572 140.009 273.751 140.201 272.895 140.328C272.038 140.474 271.126 140.547 270.16 140.547C268.191 140.547 266.505 140.237 265.102 139.617C263.716 138.997 262.659 138.022 261.93 136.691C261.201 135.361 260.836 133.629 260.836 131.496V103.059ZM308.852 126.492H298.953V119.082H308.852C310.201 119.082 311.294 118.854 312.133 118.398C312.971 117.943 313.582 117.314 313.965 116.512C314.366 115.691 314.566 114.771 314.566 113.75C314.566 112.656 314.366 111.645 313.965 110.715C313.582 109.785 312.971 109.038 312.133 108.473C311.294 107.889 310.201 107.598 308.852 107.598H302.562V140H292.965V100.188H308.852C312.042 100.188 314.785 100.771 317.082 101.938C319.397 103.104 321.174 104.708 322.414 106.75C323.654 108.773 324.273 111.089 324.273 113.695C324.273 116.266 323.654 118.508 322.414 120.422C321.174 122.336 319.397 123.831 317.082 124.906C314.785 125.964 312.042 126.492 308.852 126.492ZM338.301 117.742V140H329.086V110.414H337.699L338.301 117.742ZM347.051 110.195L346.887 118.754C346.522 118.717 346.03 118.672 345.41 118.617C344.79 118.562 344.271 118.535 343.852 118.535C342.776 118.535 341.846 118.663 341.062 118.918C340.297 119.155 339.659 119.52 339.148 120.012C338.656 120.486 338.292 121.087 338.055 121.816C337.836 122.546 337.736 123.393 337.754 124.359L336.086 123.266C336.086 121.279 336.277 119.474 336.66 117.852C337.061 116.211 337.626 114.798 338.355 113.613C339.085 112.41 339.969 111.49 341.008 110.852C342.047 110.195 343.214 109.867 344.508 109.867C344.964 109.867 345.41 109.895 345.848 109.949C346.303 110.004 346.704 110.086 347.051 110.195ZM348.09 125.508V124.934C348.09 122.764 348.4 120.768 349.02 118.945C349.639 117.104 350.551 115.509 351.754 114.16C352.957 112.811 354.443 111.763 356.211 111.016C357.979 110.25 360.021 109.867 362.336 109.867C364.669 109.867 366.72 110.25 368.488 111.016C370.275 111.763 371.77 112.811 372.973 114.16C374.176 115.509 375.087 117.104 375.707 118.945C376.327 120.768 376.637 122.764 376.637 124.934V125.508C376.637 127.659 376.327 129.655 375.707 131.496C375.087 133.319 374.176 134.914 372.973 136.281C371.77 137.63 370.284 138.678 368.516 139.426C366.747 140.173 364.706 140.547 362.391 140.547C360.076 140.547 358.025 140.173 356.238 139.426C354.452 138.678 352.957 137.63 351.754 136.281C350.551 134.914 349.639 133.319 349.02 131.496C348.4 129.655 348.09 127.659 348.09 125.508ZM357.305 124.934V125.508C357.305 126.62 357.387 127.659 357.551 128.625C357.715 129.591 357.988 130.439 358.371 131.168C358.754 131.879 359.273 132.435 359.93 132.836C360.586 133.237 361.406 133.438 362.391 133.438C363.357 133.438 364.159 133.237 364.797 132.836C365.453 132.435 365.973 131.879 366.355 131.168C366.738 130.439 367.012 129.591 367.176 128.625C367.34 127.659 367.422 126.62 367.422 125.508V124.934C367.422 123.858 367.34 122.846 367.176 121.898C367.012 120.932 366.738 120.085 366.355 119.355C365.973 118.608 365.453 118.025 364.797 117.605C364.141 117.186 363.32 116.977 362.336 116.977C361.37 116.977 360.559 117.186 359.902 117.605C359.264 118.025 358.754 118.608 358.371 119.355C357.988 120.085 357.715 120.932 357.551 121.898C357.387 122.846 357.305 123.858 357.305 124.934Z" fill="black"/>
<rect x="93" y="178" width="1214" height="77" rx="10" fill="#D3D3D3"/>
<rect x="111" y="196" width="98" height="41" rx="3" fill="#424242"/>
<path d="M137.078 210.203V223H133.993V210.203H137.078ZM142.053 215.529V217.902H136.199V215.529H142.053ZM142.554 210.203V212.585H136.199V210.203H142.554ZM146.825 209.5V223H143.854V209.5H146.825ZM154.208 220.688V213.49H157.179V223H154.401L154.208 220.688ZM154.489 218.755L155.263 218.737C155.263 219.376 155.187 219.968 155.034 220.513C154.882 221.052 154.656 221.521 154.357 221.919C154.064 222.317 153.701 222.628 153.268 222.851C152.84 223.067 152.345 223.176 151.782 223.176C151.313 223.176 150.883 223.111 150.49 222.982C150.104 222.848 149.77 222.64 149.488 222.358C149.207 222.071 148.987 221.705 148.829 221.26C148.677 220.809 148.601 220.27 148.601 219.643V213.49H151.562V219.66C151.562 219.871 151.589 220.053 151.642 220.205C151.694 220.357 151.771 220.486 151.87 220.592C151.97 220.691 152.093 220.768 152.239 220.82C152.392 220.867 152.564 220.891 152.758 220.891C153.203 220.891 153.552 220.797 153.804 220.609C154.056 220.422 154.231 220.167 154.331 219.845C154.437 219.522 154.489 219.159 154.489 218.755ZM163.823 213.49V215.547H158.093V213.49H163.823ZM159.297 211.126H162.259V219.897C162.259 220.149 162.288 220.346 162.347 220.486C162.405 220.621 162.505 220.718 162.646 220.776C162.792 220.829 162.985 220.855 163.226 220.855C163.396 220.855 163.536 220.853 163.647 220.847C163.759 220.835 163.864 220.82 163.964 220.803V222.921C163.712 223.003 163.448 223.064 163.173 223.105C162.897 223.152 162.604 223.176 162.294 223.176C161.661 223.176 161.119 223.076 160.668 222.877C160.223 222.678 159.883 222.364 159.648 221.937C159.414 221.509 159.297 220.952 159.297 220.267V211.126ZM170.011 213.49V215.547H164.28V213.49H170.011ZM165.484 211.126H168.446V219.897C168.446 220.149 168.476 220.346 168.534 220.486C168.593 220.621 168.692 220.718 168.833 220.776C168.979 220.829 169.173 220.855 169.413 220.855C169.583 220.855 169.724 220.853 169.835 220.847C169.946 220.835 170.052 220.82 170.151 220.803V222.921C169.899 223.003 169.636 223.064 169.36 223.105C169.085 223.152 168.792 223.176 168.481 223.176C167.849 223.176 167.307 223.076 166.855 222.877C166.41 222.678 166.07 222.364 165.836 221.937C165.602 221.509 165.484 220.952 165.484 220.267V211.126ZM175.794 223.176C175.021 223.176 174.329 223.056 173.72 222.815C173.11 222.569 172.595 222.232 172.173 221.805C171.757 221.377 171.438 220.885 171.215 220.328C170.998 219.771 170.89 219.183 170.89 218.562V218.228C170.89 217.53 170.986 216.886 171.18 216.294C171.373 215.696 171.66 215.175 172.041 214.729C172.422 214.284 172.899 213.938 173.474 213.692C174.048 213.44 174.716 213.314 175.478 213.314C176.151 213.314 176.755 213.423 177.288 213.64C177.821 213.856 178.272 214.167 178.642 214.571C179.017 214.976 179.301 215.465 179.494 216.039C179.693 216.613 179.793 217.258 179.793 217.973V219.177H172.023V217.322H176.901V217.094C176.907 216.777 176.852 216.508 176.734 216.285C176.623 216.062 176.459 215.893 176.242 215.775C176.025 215.658 175.762 215.6 175.451 215.6C175.129 215.6 174.862 215.67 174.651 215.811C174.446 215.951 174.285 216.145 174.168 216.391C174.057 216.631 173.978 216.909 173.931 217.226C173.884 217.542 173.86 217.876 173.86 218.228V218.562C173.86 218.913 173.907 219.232 174.001 219.52C174.101 219.807 174.241 220.053 174.423 220.258C174.61 220.457 174.833 220.612 175.091 220.724C175.354 220.835 175.653 220.891 175.987 220.891C176.392 220.891 176.79 220.814 177.183 220.662C177.575 220.51 177.912 220.258 178.193 219.906L179.538 221.506C179.345 221.781 179.069 222.048 178.712 222.306C178.36 222.563 177.938 222.774 177.446 222.938C176.954 223.097 176.403 223.176 175.794 223.176ZM183.985 215.846V223H181.023V213.49H183.792L183.985 215.846ZM186.798 213.42L186.745 216.171C186.628 216.159 186.47 216.145 186.271 216.127C186.071 216.109 185.904 216.101 185.77 216.101C185.424 216.101 185.125 216.142 184.873 216.224C184.627 216.3 184.422 216.417 184.258 216.575C184.1 216.728 183.982 216.921 183.906 217.155C183.836 217.39 183.804 217.662 183.81 217.973L183.273 217.621C183.273 216.982 183.335 216.402 183.458 215.881C183.587 215.354 183.769 214.899 184.003 214.519C184.237 214.132 184.521 213.836 184.855 213.631C185.189 213.42 185.564 213.314 185.98 213.314C186.127 213.314 186.271 213.323 186.411 213.341C186.558 213.358 186.687 213.385 186.798 213.42Z" fill="white"/>
<rect x="111" y="196" width="98" height="41" rx="3" stroke="#424242" stroke-width="4"/>
<rect x="229" y="196" width="79" height="41" rx="3" fill="#424242"/>
<path d="M256.301 223H253.462L253.479 220.627H256.301C256.887 220.627 257.382 220.486 257.786 220.205C258.196 219.924 258.507 219.505 258.718 218.948C258.935 218.386 259.043 217.694 259.043 216.874V216.32C259.043 215.705 258.981 215.166 258.858 214.703C258.741 214.234 258.565 213.845 258.331 213.534C258.097 213.218 257.804 212.98 257.452 212.822C257.106 212.664 256.708 212.585 256.257 212.585H253.409V210.203H256.257C257.124 210.203 257.918 210.353 258.639 210.651C259.365 210.944 259.992 211.366 260.52 211.917C261.053 212.462 261.463 213.109 261.75 213.859C262.043 214.604 262.189 215.43 262.189 216.338V216.874C262.189 217.776 262.043 218.603 261.75 219.353C261.463 220.103 261.056 220.75 260.528 221.295C260.001 221.84 259.377 222.262 258.656 222.561C257.941 222.854 257.156 223 256.301 223ZM255.229 210.203V223H252.144V210.203H255.229ZM268.597 220.609V216.689C268.597 216.42 268.559 216.188 268.482 215.995C268.406 215.802 268.286 215.652 268.122 215.547C267.958 215.436 267.738 215.38 267.463 215.38C267.24 215.38 267.05 215.418 266.892 215.494C266.733 215.57 266.613 215.685 266.531 215.837C266.449 215.989 266.408 216.183 266.408 216.417H263.446C263.446 215.978 263.543 215.57 263.736 215.195C263.936 214.814 264.217 214.483 264.58 214.202C264.949 213.921 265.389 213.704 265.898 213.552C266.414 213.394 266.988 213.314 267.621 213.314C268.377 213.314 269.051 213.44 269.643 213.692C270.24 213.944 270.712 214.322 271.058 214.826C271.403 215.324 271.576 215.951 271.576 216.707V220.601C271.576 221.222 271.611 221.693 271.682 222.016C271.752 222.332 271.852 222.61 271.98 222.851V223H269.01C268.869 222.707 268.764 222.35 268.693 221.928C268.629 221.5 268.597 221.061 268.597 220.609ZM268.957 217.19L268.975 218.772H267.665C267.39 218.772 267.155 218.811 266.962 218.887C266.774 218.963 266.622 219.068 266.505 219.203C266.394 219.332 266.312 219.479 266.259 219.643C266.212 219.807 266.188 219.979 266.188 220.161C266.188 220.337 266.229 220.495 266.312 220.636C266.399 220.771 266.517 220.876 266.663 220.952C266.81 221.028 266.974 221.066 267.155 221.066C267.483 221.066 267.762 221.005 267.99 220.882C268.225 220.753 268.403 220.598 268.526 220.416C268.649 220.234 268.711 220.064 268.711 219.906L269.361 221.119C269.244 221.354 269.109 221.591 268.957 221.831C268.811 222.071 268.626 222.294 268.403 222.499C268.187 222.698 267.92 222.862 267.604 222.991C267.287 223.114 266.903 223.176 266.452 223.176C265.866 223.176 265.327 223.056 264.835 222.815C264.349 222.575 263.959 222.241 263.666 221.813C263.373 221.38 263.227 220.882 263.227 220.319C263.227 219.827 263.314 219.388 263.49 219.001C263.672 218.614 263.944 218.286 264.308 218.017C264.671 217.747 265.134 217.542 265.696 217.401C266.259 217.261 266.921 217.19 267.683 217.19H268.957ZM276.208 215.846V223H273.246V213.49H276.015L276.208 215.846ZM279.021 213.42L278.968 216.171C278.851 216.159 278.692 216.145 278.493 216.127C278.294 216.109 278.127 216.101 277.992 216.101C277.646 216.101 277.348 216.142 277.096 216.224C276.85 216.3 276.645 216.417 276.48 216.575C276.322 216.728 276.205 216.921 276.129 217.155C276.059 217.39 276.026 217.662 276.032 217.973L275.496 217.621C275.496 216.982 275.558 216.402 275.681 215.881C275.81 215.354 275.991 214.899 276.226 214.519C276.46 214.132 276.744 213.836 277.078 213.631C277.412 213.42 277.787 213.314 278.203 213.314C278.35 213.314 278.493 213.323 278.634 213.341C278.78 213.358 278.909 213.385 279.021 213.42ZM285.489 213.49V215.547H279.759V213.49H285.489ZM280.963 211.126H283.925V219.897C283.925 220.149 283.954 220.346 284.013 220.486C284.071 220.621 284.171 220.718 284.312 220.776C284.458 220.829 284.651 220.855 284.892 220.855C285.062 220.855 285.202 220.853 285.313 220.847C285.425 220.835 285.53 220.82 285.63 220.803V222.921C285.378 223.003 285.114 223.064 284.839 223.105C284.563 223.152 284.271 223.176 283.96 223.176C283.327 223.176 282.785 223.076 282.334 222.877C281.889 222.678 281.549 222.364 281.314 221.937C281.08 221.509 280.963 220.952 280.963 220.267V211.126Z" fill="white"/>
<rect x="229" y="196" width="79" height="41" rx="3" stroke="#424242" stroke-width="4"/>
<rect x="328" y="196" width="104" height="41" rx="3" fill="#424242"/>
<path d="M359.812 220.627V223H353.343V220.627H359.812ZM354.441 210.203V223H351.356V210.203H354.441ZM365.911 220.609V216.689C365.911 216.42 365.873 216.188 365.797 215.995C365.721 215.802 365.601 215.652 365.437 215.547C365.272 215.436 365.053 215.38 364.777 215.38C364.555 215.38 364.364 215.418 364.206 215.494C364.048 215.57 363.928 215.685 363.846 215.837C363.764 215.989 363.723 216.183 363.723 216.417H360.761C360.761 215.978 360.857 215.57 361.051 215.195C361.25 214.814 361.531 214.483 361.895 214.202C362.264 213.921 362.703 213.704 363.213 213.552C363.729 213.394 364.303 213.314 364.936 213.314C365.691 213.314 366.365 213.44 366.957 213.692C367.555 213.944 368.026 214.322 368.372 214.826C368.718 215.324 368.891 215.951 368.891 216.707V220.601C368.891 221.222 368.926 221.693 368.996 222.016C369.066 222.332 369.166 222.61 369.295 222.851V223H366.324C366.184 222.707 366.078 222.35 366.008 221.928C365.943 221.5 365.911 221.061 365.911 220.609ZM366.271 217.19L366.289 218.772H364.979C364.704 218.772 364.47 218.811 364.276 218.887C364.089 218.963 363.937 219.068 363.819 219.203C363.708 219.332 363.626 219.479 363.573 219.643C363.526 219.807 363.503 219.979 363.503 220.161C363.503 220.337 363.544 220.495 363.626 220.636C363.714 220.771 363.831 220.876 363.978 220.952C364.124 221.028 364.288 221.066 364.47 221.066C364.798 221.066 365.076 221.005 365.305 220.882C365.539 220.753 365.718 220.598 365.841 220.416C365.964 220.234 366.025 220.064 366.025 219.906L366.676 221.119C366.559 221.354 366.424 221.591 366.271 221.831C366.125 222.071 365.94 222.294 365.718 222.499C365.501 222.698 365.234 222.862 364.918 222.991C364.602 223.114 364.218 223.176 363.767 223.176C363.181 223.176 362.642 223.056 362.149 222.815C361.663 222.575 361.273 222.241 360.98 221.813C360.688 221.38 360.541 220.882 360.541 220.319C360.541 219.827 360.629 219.388 360.805 219.001C360.986 218.614 361.259 218.286 361.622 218.017C361.985 217.747 362.448 217.542 363.011 217.401C363.573 217.261 364.235 217.19 364.997 217.19H366.271ZM373.522 215.846V223H370.561V213.49H373.329L373.522 215.846ZM376.335 213.42L376.282 216.171C376.165 216.159 376.007 216.145 375.808 216.127C375.608 216.109 375.441 216.101 375.307 216.101C374.961 216.101 374.662 216.142 374.41 216.224C374.164 216.3 373.959 216.417 373.795 216.575C373.637 216.728 373.52 216.921 373.443 217.155C373.373 217.39 373.341 217.662 373.347 217.973L372.811 217.621C372.811 216.982 372.872 216.402 372.995 215.881C373.124 215.354 373.306 214.899 373.54 214.519C373.774 214.132 374.059 213.836 374.393 213.631C374.727 213.42 375.102 213.314 375.518 213.314C375.664 213.314 375.808 213.323 375.948 213.341C376.095 213.358 376.224 213.385 376.335 213.42ZM382.03 220.609V216.689C382.03 216.42 381.992 216.188 381.916 215.995C381.84 215.802 381.72 215.652 381.556 215.547C381.392 215.436 381.172 215.38 380.896 215.38C380.674 215.38 380.483 215.418 380.325 215.494C380.167 215.57 380.047 215.685 379.965 215.837C379.883 215.989 379.842 216.183 379.842 216.417H376.88C376.88 215.978 376.977 215.57 377.17 215.195C377.369 214.814 377.65 214.483 378.014 214.202C378.383 213.921 378.822 213.704 379.332 213.552C379.848 213.394 380.422 213.314 381.055 213.314C381.811 213.314 382.484 213.44 383.076 213.692C383.674 213.944 384.146 214.322 384.491 214.826C384.837 215.324 385.01 215.951 385.01 216.707V220.601C385.01 221.222 385.045 221.693 385.115 222.016C385.186 222.332 385.285 222.61 385.414 222.851V223H382.443C382.303 222.707 382.197 222.35 382.127 221.928C382.062 221.5 382.03 221.061 382.03 220.609ZM382.391 217.19L382.408 218.772H381.099C380.823 218.772 380.589 218.811 380.396 218.887C380.208 218.963 380.056 219.068 379.938 219.203C379.827 219.332 379.745 219.479 379.692 219.643C379.646 219.807 379.622 219.979 379.622 220.161C379.622 220.337 379.663 220.495 379.745 220.636C379.833 220.771 379.95 220.876 380.097 220.952C380.243 221.028 380.407 221.066 380.589 221.066C380.917 221.066 381.195 221.005 381.424 220.882C381.658 220.753 381.837 220.598 381.96 220.416C382.083 220.234 382.145 220.064 382.145 219.906L382.795 221.119C382.678 221.354 382.543 221.591 382.391 221.831C382.244 222.071 382.06 222.294 381.837 222.499C381.62 222.698 381.354 222.862 381.037 222.991C380.721 223.114 380.337 223.176 379.886 223.176C379.3 223.176 378.761 223.056 378.269 222.815C377.782 222.575 377.393 222.241 377.1 221.813C376.807 221.38 376.66 220.882 376.66 220.319C376.66 219.827 376.748 219.388 376.924 219.001C377.105 218.614 377.378 218.286 377.741 218.017C378.104 217.747 378.567 217.542 379.13 217.401C379.692 217.261 380.354 217.19 381.116 217.19H382.391ZM389.94 220.97L391.812 213.49H394.933L391.821 223H389.976L389.94 220.97ZM388.833 213.49L390.679 220.97L390.661 223H388.807L385.704 213.49H388.833ZM400.294 223.176C399.521 223.176 398.829 223.056 398.22 222.815C397.61 222.569 397.095 222.232 396.673 221.805C396.257 221.377 395.938 220.885 395.715 220.328C395.498 219.771 395.39 219.183 395.39 218.562V218.228C395.39 217.53 395.486 216.886 395.68 216.294C395.873 215.696 396.16 215.175 396.541 214.729C396.922 214.284 397.399 213.938 397.974 213.692C398.548 213.44 399.216 213.314 399.978 213.314C400.651 213.314 401.255 213.423 401.788 213.64C402.321 213.856 402.772 214.167 403.142 214.571C403.517 214.976 403.801 215.465 403.994 216.039C404.193 216.613 404.293 217.258 404.293 217.973V219.177H396.523V217.322H401.401V217.094C401.407 216.777 401.352 216.508 401.234 216.285C401.123 216.062 400.959 215.893 400.742 215.775C400.525 215.658 400.262 215.6 399.951 215.6C399.629 215.6 399.362 215.67 399.151 215.811C398.946 215.951 398.785 216.145 398.668 216.391C398.557 216.631 398.478 216.909 398.431 217.226C398.384 217.542 398.36 217.876 398.36 218.228V218.562C398.36 218.913 398.407 219.232 398.501 219.52C398.601 219.807 398.741 220.053 398.923 220.258C399.11 220.457 399.333 220.612 399.591 220.724C399.854 220.835 400.153 220.891 400.487 220.891C400.892 220.891 401.29 220.814 401.683 220.662C402.075 220.51 402.412 220.258 402.693 219.906L404.038 221.506C403.845 221.781 403.569 222.048 403.212 222.306C402.86 222.563 402.438 222.774 401.946 222.938C401.454 223.097 400.903 223.176 400.294 223.176ZM408.626 209.5V223H405.655V209.5H408.626Z" fill="white"/>
<rect x="328" y="196" width="104" height="41" rx="3" stroke="#424242" stroke-width="4"/>
<rect x="452" y="196" width="103" height="41" rx="3" fill="#424242"/>
<path d="M476.72 210.203H479.233L482.09 219.106L484.946 210.203H487.46L483.109 223H481.07L476.72 210.203ZM475.19 210.203H477.792L478.275 220.012V223H475.19V210.203ZM486.388 210.203H488.998V223H485.904V220.012L486.388 210.203ZM493.753 221.884L496.214 213.49H499.396L495.572 224.415C495.49 224.655 495.382 224.913 495.247 225.188C495.112 225.47 494.928 225.736 494.693 225.988C494.459 226.24 494.157 226.445 493.788 226.604C493.425 226.762 492.974 226.841 492.435 226.841C492.147 226.841 491.937 226.826 491.802 226.797C491.673 226.773 491.474 226.729 491.204 226.665V224.547C491.28 224.547 491.345 224.547 491.397 224.547C491.456 224.547 491.521 224.547 491.591 224.547C491.907 224.547 492.159 224.515 492.347 224.45C492.54 224.386 492.687 224.292 492.786 224.169C492.892 224.046 492.974 223.896 493.032 223.721L493.753 221.884ZM493.129 213.49L495.001 220.144L495.326 223.281H493.34L489.956 213.49H493.129ZM506.901 219.599C506.901 219.399 506.872 219.221 506.813 219.062C506.755 218.898 506.646 218.746 506.488 218.605C506.33 218.465 506.102 218.324 505.803 218.184C505.51 218.037 505.123 217.885 504.643 217.727C504.08 217.539 503.538 217.328 503.017 217.094C502.495 216.854 502.029 216.575 501.619 216.259C501.209 215.937 500.884 215.562 500.644 215.134C500.403 214.7 500.283 214.196 500.283 213.622C500.283 213.071 500.406 212.576 500.652 212.137C500.898 211.691 501.241 211.313 501.681 211.003C502.126 210.687 502.647 210.446 503.245 210.282C503.843 210.112 504.496 210.027 505.205 210.027C506.143 210.027 506.969 210.191 507.684 210.52C508.404 210.842 508.967 211.302 509.371 211.899C509.781 212.491 509.986 213.191 509.986 214H506.919C506.919 213.678 506.852 213.394 506.717 213.147C506.588 212.901 506.392 212.708 506.128 212.567C505.864 212.427 505.533 212.356 505.135 212.356C504.748 212.356 504.423 212.415 504.159 212.532C503.896 212.649 503.696 212.808 503.562 213.007C503.427 213.2 503.359 213.414 503.359 213.648C503.359 213.842 503.412 214.018 503.518 214.176C503.629 214.328 503.784 214.472 503.983 214.606C504.188 214.741 504.435 214.87 504.722 214.993C505.015 215.116 505.343 215.236 505.706 215.354C506.386 215.57 506.989 215.813 507.517 216.083C508.05 216.347 508.498 216.648 508.861 216.988C509.23 217.322 509.509 217.703 509.696 218.131C509.89 218.559 509.986 219.042 509.986 219.581C509.986 220.155 509.875 220.665 509.652 221.11C509.43 221.556 509.11 221.934 508.694 222.244C508.278 222.549 507.78 222.78 507.2 222.938C506.62 223.097 505.973 223.176 505.258 223.176C504.602 223.176 503.954 223.094 503.315 222.93C502.683 222.76 502.108 222.502 501.593 222.156C501.077 221.805 500.664 221.356 500.354 220.812C500.049 220.261 499.896 219.607 499.896 218.852H502.99C502.99 219.227 503.04 219.543 503.14 219.801C503.239 220.059 503.386 220.267 503.579 220.425C503.772 220.577 504.01 220.688 504.291 220.759C504.572 220.823 504.895 220.855 505.258 220.855C505.65 220.855 505.967 220.8 506.207 220.688C506.447 220.571 506.623 220.419 506.734 220.231C506.846 220.038 506.901 219.827 506.901 219.599ZM518.714 220.891L522.282 223.721L520.366 225.338L516.859 222.508L518.714 220.891ZM522.432 216.347V216.865C522.432 217.844 522.294 218.723 522.019 219.502C521.749 220.275 521.362 220.938 520.858 221.488C520.36 222.033 519.771 222.452 519.092 222.745C518.412 223.032 517.662 223.176 516.842 223.176C516.016 223.176 515.26 223.032 514.574 222.745C513.895 222.452 513.303 222.033 512.799 221.488C512.301 220.938 511.914 220.275 511.639 219.502C511.369 218.723 511.234 217.844 511.234 216.865V216.347C511.234 215.368 511.369 214.489 511.639 213.71C511.914 212.931 512.298 212.269 512.79 211.724C513.288 211.173 513.877 210.754 514.557 210.467C515.242 210.174 515.998 210.027 516.824 210.027C517.645 210.027 518.395 210.174 519.074 210.467C519.76 210.754 520.352 211.173 520.85 211.724C521.354 212.269 521.743 212.931 522.019 213.71C522.294 214.489 522.432 215.368 522.432 216.347ZM519.294 216.865V216.329C519.294 215.696 519.238 215.14 519.127 214.659C519.021 214.173 518.863 213.766 518.652 213.438C518.441 213.109 518.181 212.863 517.87 212.699C517.565 212.529 517.217 212.444 516.824 212.444C516.414 212.444 516.057 212.529 515.752 212.699C515.447 212.863 515.192 213.109 514.987 213.438C514.782 213.766 514.627 214.173 514.521 214.659C514.422 215.14 514.372 215.696 514.372 216.329V216.865C514.372 217.492 514.422 218.049 514.521 218.535C514.627 219.016 514.782 219.423 514.987 219.757C515.198 220.091 515.456 220.343 515.761 220.513C516.071 220.683 516.432 220.768 516.842 220.768C517.234 220.768 517.583 220.683 517.888 220.513C518.192 220.343 518.447 220.091 518.652 219.757C518.863 219.423 519.021 219.016 519.127 218.535C519.238 218.049 519.294 217.492 519.294 216.865ZM532.46 220.627V223H525.991V220.627H532.46ZM527.09 210.203V223H524.005V210.203H527.09Z" fill="white"/>
<rect x="452" y="196" width="103" height="41" rx="3" stroke="#424242" stroke-width="4"/>
<rect x="575" y="196" width="104" height="41" rx="3" fill="#424242"/>
<path d="M608.921 216.347V216.865C608.921 217.844 608.783 218.723 608.508 219.502C608.238 220.275 607.854 220.938 607.356 221.488C606.858 222.033 606.27 222.452 605.59 222.745C604.91 223.032 604.16 223.176 603.34 223.176C602.514 223.176 601.758 223.032 601.072 222.745C600.393 222.452 599.801 222.033 599.297 221.488C598.799 220.938 598.412 220.275 598.137 219.502C597.867 218.723 597.732 217.844 597.732 216.865V216.347C597.732 215.368 597.867 214.489 598.137 213.71C598.412 212.931 598.796 212.269 599.288 211.724C599.786 211.173 600.375 210.754 601.055 210.467C601.74 210.174 602.496 210.027 603.322 210.027C604.143 210.027 604.893 210.174 605.572 210.467C606.258 210.754 606.85 211.173 607.348 211.724C607.846 212.269 608.232 212.931 608.508 213.71C608.783 214.489 608.921 215.368 608.921 216.347ZM605.792 216.865V216.329C605.792 215.696 605.736 215.14 605.625 214.659C605.52 214.173 605.361 213.766 605.15 213.438C604.939 213.109 604.679 212.863 604.368 212.699C604.063 212.529 603.715 212.444 603.322 212.444C602.912 212.444 602.555 212.529 602.25 212.699C601.945 212.863 601.69 213.109 601.485 213.438C601.28 213.766 601.125 214.173 601.02 214.659C600.92 215.14 600.87 215.696 600.87 216.329V216.865C600.87 217.492 600.92 218.049 601.02 218.535C601.125 219.016 601.28 219.423 601.485 219.757C601.696 220.091 601.954 220.343 602.259 220.513C602.569 220.683 602.93 220.768 603.34 220.768C603.732 220.768 604.081 220.683 604.386 220.513C604.69 220.343 604.945 220.091 605.15 219.757C605.361 219.423 605.52 219.016 605.625 218.535C605.736 218.049 605.792 217.492 605.792 216.865ZM613.368 215.318V226.656H610.406V213.49H613.166L613.368 215.318ZM619.204 218.131V218.315C619.204 219.007 619.125 219.648 618.967 220.24C618.809 220.832 618.574 221.348 618.264 221.787C617.953 222.227 617.566 222.569 617.104 222.815C616.646 223.056 616.116 223.176 615.513 223.176C614.944 223.176 614.455 223.05 614.045 222.798C613.635 222.546 613.292 222.197 613.017 221.752C612.741 221.307 612.519 220.797 612.349 220.223C612.179 219.648 612.044 219.042 611.944 218.403V218.166C612.044 217.48 612.179 216.845 612.349 216.259C612.519 215.667 612.741 215.151 613.017 214.712C613.292 214.272 613.632 213.93 614.036 213.684C614.446 213.438 614.936 213.314 615.504 213.314C616.107 213.314 616.638 213.429 617.095 213.657C617.558 213.886 617.944 214.214 618.255 214.642C618.571 215.063 618.809 215.57 618.967 216.162C619.125 216.754 619.204 217.41 619.204 218.131ZM616.242 218.315V218.131C616.242 217.762 616.216 217.425 616.163 217.12C616.11 216.81 616.025 216.54 615.908 216.312C615.797 216.083 615.647 215.907 615.46 215.784C615.272 215.661 615.041 215.6 614.766 215.6C614.449 215.6 614.183 215.649 613.966 215.749C613.755 215.843 613.585 215.989 613.456 216.188C613.333 216.382 613.245 216.625 613.192 216.918C613.146 217.205 613.125 217.542 613.131 217.929V218.649C613.119 219.095 613.163 219.487 613.263 219.827C613.362 220.161 613.535 220.422 613.781 220.609C614.027 220.797 614.361 220.891 614.783 220.891C615.064 220.891 615.299 220.826 615.486 220.697C615.674 220.562 615.823 220.378 615.935 220.144C616.046 219.903 616.125 219.628 616.172 219.317C616.219 219.007 616.242 218.673 616.242 218.315ZM625.128 223.176C624.354 223.176 623.663 223.056 623.054 222.815C622.444 222.569 621.929 222.232 621.507 221.805C621.091 221.377 620.771 220.885 620.549 220.328C620.332 219.771 620.224 219.183 620.224 218.562V218.228C620.224 217.53 620.32 216.886 620.514 216.294C620.707 215.696 620.994 215.175 621.375 214.729C621.756 214.284 622.233 213.938 622.808 213.692C623.382 213.44 624.05 213.314 624.812 213.314C625.485 213.314 626.089 213.423 626.622 213.64C627.155 213.856 627.606 214.167 627.976 214.571C628.351 214.976 628.635 215.465 628.828 216.039C629.027 216.613 629.127 217.258 629.127 217.973V219.177H621.357V217.322H626.235V217.094C626.241 216.777 626.186 216.508 626.068 216.285C625.957 216.062 625.793 215.893 625.576 215.775C625.359 215.658 625.096 215.6 624.785 215.6C624.463 215.6 624.196 215.67 623.985 215.811C623.78 215.951 623.619 216.145 623.502 216.391C623.391 216.631 623.312 216.909 623.265 217.226C623.218 217.542 623.194 217.876 623.194 218.228V218.562C623.194 218.913 623.241 219.232 623.335 219.52C623.435 219.807 623.575 220.053 623.757 220.258C623.944 220.457 624.167 220.612 624.425 220.724C624.688 220.835 624.987 220.891 625.321 220.891C625.726 220.891 626.124 220.814 626.517 220.662C626.909 220.51 627.246 220.258 627.527 219.906L628.872 221.506C628.679 221.781 628.403 222.048 628.046 222.306C627.694 222.563 627.272 222.774 626.78 222.938C626.288 223.097 625.737 223.176 625.128 223.176ZM633.24 215.521V223H630.278V213.49H633.056L633.24 215.521ZM632.889 217.92L632.194 217.938C632.194 217.211 632.282 216.563 632.458 215.995C632.634 215.421 632.883 214.935 633.205 214.536C633.527 214.138 633.911 213.836 634.356 213.631C634.808 213.42 635.309 213.314 635.859 213.314C636.299 213.314 636.7 213.379 637.063 213.508C637.433 213.637 637.749 213.845 638.013 214.132C638.282 214.419 638.487 214.8 638.628 215.274C638.774 215.743 638.848 216.323 638.848 217.015V223H635.868V217.006C635.868 216.625 635.815 216.335 635.71 216.136C635.604 215.931 635.452 215.79 635.253 215.714C635.054 215.638 634.811 215.6 634.523 215.6C634.219 215.6 633.961 215.658 633.75 215.775C633.539 215.893 633.369 216.057 633.24 216.268C633.117 216.473 633.026 216.716 632.968 216.997C632.915 217.278 632.889 217.586 632.889 217.92ZM646.055 212.893L642.935 223H639.621L644.323 210.203H646.424L646.055 212.893ZM648.639 223L645.51 212.893L645.105 210.203H647.232L651.961 223H648.639ZM648.516 218.228V220.609H641.95V218.228H648.516ZM655.89 213.49V223H652.919V213.49H655.89ZM652.743 211.038C652.743 210.616 652.896 210.271 653.2 210.001C653.505 209.731 653.9 209.597 654.387 209.597C654.873 209.597 655.269 209.731 655.573 210.001C655.878 210.271 656.03 210.616 656.03 211.038C656.03 211.46 655.878 211.806 655.573 212.075C655.269 212.345 654.873 212.479 654.387 212.479C653.9 212.479 653.505 212.345 653.2 212.075C652.896 211.806 652.743 211.46 652.743 211.038Z" fill="white"/>
<rect x="575" y="196" width="104" height="41" rx="3" stroke="#424242" stroke-width="4"/>
<rect x="699" y="196" width="91" height="41" rx="3" fill="#424242"/>
<path d="M722.141 210.203H727.177C728.161 210.203 729.017 210.35 729.743 210.643C730.47 210.936 731.029 211.369 731.422 211.943C731.82 212.518 732.02 213.227 732.02 214.07C732.02 214.803 731.905 215.415 731.677 215.907C731.448 216.399 731.129 216.807 730.719 217.129C730.314 217.445 729.843 217.706 729.304 217.911L728.293 218.482H724.065L724.048 216.101H727.177C727.569 216.101 727.895 216.03 728.152 215.89C728.41 215.749 728.604 215.55 728.732 215.292C728.867 215.028 728.935 214.715 728.935 214.352C728.935 213.982 728.867 213.666 728.732 213.402C728.598 213.139 728.398 212.937 728.135 212.796C727.877 212.655 727.558 212.585 727.177 212.585H725.226V223H722.141V210.203ZM729.146 223L726.315 217.34L729.585 217.322L732.45 222.868V223H729.146ZM738.348 223.176C737.574 223.176 736.883 223.056 736.273 222.815C735.664 222.569 735.148 222.232 734.727 221.805C734.311 221.377 733.991 220.885 733.769 220.328C733.552 219.771 733.443 219.183 733.443 218.562V218.228C733.443 217.53 733.54 216.886 733.733 216.294C733.927 215.696 734.214 215.175 734.595 214.729C734.976 214.284 735.453 213.938 736.027 213.692C736.602 213.44 737.27 213.314 738.031 213.314C738.705 213.314 739.309 213.423 739.842 213.64C740.375 213.856 740.826 214.167 741.195 214.571C741.57 214.976 741.854 215.465 742.048 216.039C742.247 216.613 742.347 217.258 742.347 217.973V219.177H734.577V217.322H739.455V217.094C739.461 216.777 739.405 216.508 739.288 216.285C739.177 216.062 739.013 215.893 738.796 215.775C738.579 215.658 738.315 215.6 738.005 215.6C737.683 215.6 737.416 215.67 737.205 215.811C737 215.951 736.839 216.145 736.722 216.391C736.61 216.631 736.531 216.909 736.484 217.226C736.438 217.542 736.414 217.876 736.414 218.228V218.562C736.414 218.913 736.461 219.232 736.555 219.52C736.654 219.807 736.795 220.053 736.977 220.258C737.164 220.457 737.387 220.612 737.645 220.724C737.908 220.835 738.207 220.891 738.541 220.891C738.945 220.891 739.344 220.814 739.736 220.662C740.129 220.51 740.466 220.258 740.747 219.906L742.092 221.506C741.898 221.781 741.623 222.048 741.266 222.306C740.914 222.563 740.492 222.774 740 222.938C739.508 223.097 738.957 223.176 738.348 223.176ZM748.49 220.609V216.689C748.49 216.42 748.452 216.188 748.376 215.995C748.3 215.802 748.18 215.652 748.016 215.547C747.852 215.436 747.632 215.38 747.356 215.38C747.134 215.38 746.943 215.418 746.785 215.494C746.627 215.57 746.507 215.685 746.425 215.837C746.343 215.989 746.302 216.183 746.302 216.417H743.34C743.34 215.978 743.437 215.57 743.63 215.195C743.829 214.814 744.11 214.483 744.474 214.202C744.843 213.921 745.282 213.704 745.792 213.552C746.308 213.394 746.882 213.314 747.515 213.314C748.271 213.314 748.944 213.44 749.536 213.692C750.134 213.944 750.605 214.322 750.951 214.826C751.297 215.324 751.47 215.951 751.47 216.707V220.601C751.47 221.222 751.505 221.693 751.575 222.016C751.646 222.332 751.745 222.61 751.874 222.851V223H748.903C748.763 222.707 748.657 222.35 748.587 221.928C748.522 221.5 748.49 221.061 748.49 220.609ZM748.851 217.19L748.868 218.772H747.559C747.283 218.772 747.049 218.811 746.855 218.887C746.668 218.963 746.516 219.068 746.398 219.203C746.287 219.332 746.205 219.479 746.152 219.643C746.105 219.807 746.082 219.979 746.082 220.161C746.082 220.337 746.123 220.495 746.205 220.636C746.293 220.771 746.41 220.876 746.557 220.952C746.703 221.028 746.867 221.066 747.049 221.066C747.377 221.066 747.655 221.005 747.884 220.882C748.118 220.753 748.297 220.598 748.42 220.416C748.543 220.234 748.604 220.064 748.604 219.906L749.255 221.119C749.138 221.354 749.003 221.591 748.851 221.831C748.704 222.071 748.52 222.294 748.297 222.499C748.08 222.698 747.813 222.862 747.497 222.991C747.181 223.114 746.797 223.176 746.346 223.176C745.76 223.176 745.221 223.056 744.729 222.815C744.242 222.575 743.853 222.241 743.56 221.813C743.267 221.38 743.12 220.882 743.12 220.319C743.12 219.827 743.208 219.388 743.384 219.001C743.565 218.614 743.838 218.286 744.201 218.017C744.564 217.747 745.027 217.542 745.59 217.401C746.152 217.261 746.814 217.19 747.576 217.19H748.851ZM757.13 220.891C757.405 220.891 757.64 220.841 757.833 220.741C758.032 220.636 758.182 220.489 758.281 220.302C758.387 220.108 758.437 219.877 758.431 219.607H761.217C761.223 220.322 761.047 220.949 760.689 221.488C760.338 222.021 759.857 222.438 759.248 222.736C758.645 223.029 757.962 223.176 757.2 223.176C756.456 223.176 755.806 223.056 755.249 222.815C754.692 222.569 754.227 222.229 753.852 221.796C753.482 221.356 753.204 220.844 753.017 220.258C752.835 219.672 752.744 219.036 752.744 218.351V218.148C752.744 217.463 752.835 216.827 753.017 216.241C753.204 215.649 753.482 215.137 753.852 214.703C754.227 214.264 754.689 213.924 755.24 213.684C755.797 213.438 756.444 213.314 757.183 213.314C757.974 213.314 758.671 213.464 759.274 213.763C759.884 214.062 760.361 214.495 760.707 215.063C761.053 215.632 761.223 216.32 761.217 217.129H758.431C758.437 216.842 758.393 216.584 758.299 216.355C758.205 216.127 758.059 215.945 757.859 215.811C757.666 215.67 757.417 215.6 757.112 215.6C756.808 215.6 756.562 215.667 756.374 215.802C756.187 215.937 756.043 216.124 755.943 216.364C755.85 216.599 755.785 216.868 755.75 217.173C755.721 217.478 755.706 217.803 755.706 218.148V218.351C755.706 218.702 755.721 219.033 755.75 219.344C755.785 219.648 755.853 219.918 755.952 220.152C756.052 220.381 756.195 220.562 756.383 220.697C756.57 220.826 756.819 220.891 757.13 220.891ZM767.492 213.49V215.547H761.762V213.49H767.492ZM762.966 211.126H765.928V219.897C765.928 220.149 765.957 220.346 766.016 220.486C766.074 220.621 766.174 220.718 766.314 220.776C766.461 220.829 766.654 220.855 766.895 220.855C767.064 220.855 767.205 220.853 767.316 220.847C767.428 220.835 767.533 220.82 767.633 220.803V222.921C767.381 223.003 767.117 223.064 766.842 223.105C766.566 223.152 766.273 223.176 765.963 223.176C765.33 223.176 764.788 223.076 764.337 222.877C763.892 222.678 763.552 222.364 763.317 221.937C763.083 221.509 762.966 220.952 762.966 220.267V211.126Z" fill="white"/>
<rect x="699" y="196" width="91" height="41" rx="3" stroke="#424242" stroke-width="4"/>
</svg>
