<svg width="1363" height="163" viewBox="0 0 1363 163" fill="none" xmlns="http://www.w3.org/2000/svg">
<path d="M0 15C0 6.71573 6.71573 0 15 0H37V163H15C6.71573 163 0 156.284 0 148V15Z" fill="#0095FF"/>
<rect width="1097" height="163" transform="translate(37)" fill="#F0F0F0"/>
<path d="M101.906 53.9219L94.3945 51.2383V48.0859L104.602 52.375V54.6367L101.906 53.9219ZM94.3945 56.1719L101.918 53.4297L104.602 52.7852V55.0352L94.3945 59.3242V56.1719ZM119.543 54.918H115.195V52.1758H119.543C120.215 52.1758 120.762 52.0664 121.184 51.8477C121.605 51.6211 121.914 51.3086 122.109 50.9102C122.305 50.5117 122.402 50.0625 122.402 49.5625C122.402 49.0547 122.305 48.582 122.109 48.1445C121.914 47.707 121.605 47.3555 121.184 47.0898C120.762 46.8242 120.215 46.6914 119.543 46.6914H116.414V61H112.898V43.9375H119.543C120.879 43.9375 122.023 44.1797 122.977 44.6641C123.938 45.1406 124.672 45.8008 125.18 46.6445C125.688 47.4883 125.941 48.4531 125.941 49.5391C125.941 50.6406 125.688 51.5938 125.18 52.3984C124.672 53.2031 123.938 53.8242 122.977 54.2617C122.023 54.6992 120.879 54.918 119.543 54.918ZM131.531 51.0859V61H128.156V48.3203H131.332L131.531 51.0859ZM135.352 48.2383L135.293 51.3672C135.129 51.3438 134.93 51.3242 134.695 51.3086C134.469 51.2852 134.262 51.2734 134.074 51.2734C133.598 51.2734 133.184 51.3359 132.832 51.4609C132.488 51.5781 132.199 51.7539 131.965 51.9883C131.738 52.2227 131.566 52.5078 131.449 52.8438C131.34 53.1797 131.277 53.5625 131.262 53.9922L130.582 53.7812C130.582 52.9609 130.664 52.207 130.828 51.5195C130.992 50.8242 131.23 50.2188 131.543 49.7031C131.863 49.1875 132.254 48.7891 132.715 48.5078C133.176 48.2266 133.703 48.0859 134.297 48.0859C134.484 48.0859 134.676 48.1016 134.871 48.1328C135.066 48.1562 135.227 48.1914 135.352 48.2383ZM142.547 61.2344C141.562 61.2344 140.68 61.0781 139.898 60.7656C139.117 60.4453 138.453 60.0039 137.906 59.4414C137.367 58.8789 136.953 58.2266 136.664 57.4844C136.375 56.7344 136.23 55.9375 136.23 55.0938V54.625C136.23 53.6641 136.367 52.7852 136.641 51.9883C136.914 51.1914 137.305 50.5 137.812 49.9141C138.328 49.3281 138.953 48.8789 139.688 48.5664C140.422 48.2461 141.25 48.0859 142.172 48.0859C143.07 48.0859 143.867 48.2344 144.562 48.5312C145.258 48.8281 145.84 49.25 146.309 49.7969C146.785 50.3438 147.145 51 147.387 51.7656C147.629 52.5234 147.75 53.3672 147.75 54.2969V55.7031H137.672V53.4531H144.434V53.1953C144.434 52.7266 144.348 52.3086 144.176 51.9414C144.012 51.5664 143.762 51.2695 143.426 51.0508C143.09 50.832 142.66 50.7227 142.137 50.7227C141.691 50.7227 141.309 50.8203 140.988 51.0156C140.668 51.2109 140.406 51.4844 140.203 51.8359C140.008 52.1875 139.859 52.6016 139.758 53.0781C139.664 53.5469 139.617 54.0625 139.617 54.625V55.0938C139.617 55.6016 139.688 56.0703 139.828 56.5C139.977 56.9297 140.184 57.3008 140.449 57.6133C140.723 57.9258 141.051 58.168 141.434 58.3398C141.824 58.5117 142.266 58.5977 142.758 58.5977C143.367 58.5977 143.934 58.4805 144.457 58.2461C144.988 58.0039 145.445 57.6406 145.828 57.1562L147.469 58.9375C147.203 59.3203 146.84 59.6875 146.379 60.0391C145.926 60.3906 145.379 60.6797 144.738 60.9062C144.098 61.125 143.367 61.2344 142.547 61.2344ZM157.16 58.2344V43H160.559V61H157.5L157.16 58.2344ZM149.145 54.8125V54.5664C149.145 53.5977 149.254 52.7188 149.473 51.9297C149.691 51.1328 150.012 50.4492 150.434 49.8789C150.855 49.3086 151.375 48.8672 151.992 48.5547C152.609 48.2422 153.312 48.0859 154.102 48.0859C154.844 48.0859 155.492 48.2422 156.047 48.5547C156.609 48.8672 157.086 49.3125 157.477 49.8906C157.875 50.4609 158.195 51.1367 158.438 51.918C158.68 52.6914 158.855 53.5391 158.965 54.4609V55C158.855 55.8828 158.68 56.7031 158.438 57.4609C158.195 58.2188 157.875 58.8828 157.477 59.4531C157.086 60.0156 156.609 60.4531 156.047 60.7656C155.484 61.0781 154.828 61.2344 154.078 61.2344C153.289 61.2344 152.586 61.0742 151.969 60.7539C151.359 60.4336 150.844 59.9844 150.422 59.4062C150.008 58.8281 149.691 58.1484 149.473 57.3672C149.254 56.5859 149.145 55.7344 149.145 54.8125ZM152.52 54.5664V54.8125C152.52 55.3359 152.559 55.8242 152.637 56.2773C152.723 56.7305 152.859 57.1328 153.047 57.4844C153.242 57.8281 153.492 58.0977 153.797 58.293C154.109 58.4805 154.488 58.5742 154.934 58.5742C155.512 58.5742 155.988 58.4453 156.363 58.1875C156.738 57.9219 157.023 57.5586 157.219 57.0977C157.422 56.6367 157.539 56.1055 157.57 55.5039V53.9688C157.547 53.4766 157.477 53.0352 157.359 52.6445C157.25 52.2461 157.086 51.9062 156.867 51.625C156.656 51.3438 156.391 51.125 156.07 50.9688C155.758 50.8125 155.387 50.7344 154.957 50.7344C154.52 50.7344 154.145 50.8359 153.832 51.0391C153.52 51.2344 153.266 51.5039 153.07 51.8477C152.883 52.1914 152.742 52.5977 152.648 53.0664C152.562 53.5273 152.52 54.0273 152.52 54.5664ZM166.758 48.3203V61H163.371V48.3203H166.758ZM163.16 45.0156C163.16 44.5234 163.332 44.1172 163.676 43.7969C164.02 43.4766 164.48 43.3164 165.059 43.3164C165.629 43.3164 166.086 43.4766 166.43 43.7969C166.781 44.1172 166.957 44.5234 166.957 45.0156C166.957 45.5078 166.781 45.9141 166.43 46.2344C166.086 46.5547 165.629 46.7148 165.059 46.7148C164.48 46.7148 164.02 46.5547 163.676 46.2344C163.332 45.9141 163.16 45.5078 163.16 45.0156ZM174.785 58.5977C175.199 58.5977 175.566 58.5195 175.887 58.3633C176.207 58.1992 176.457 57.9727 176.637 57.6836C176.824 57.3867 176.922 57.0391 176.93 56.6406H180.105C180.098 57.5312 179.859 58.3242 179.391 59.0195C178.922 59.707 178.293 60.25 177.504 60.6484C176.715 61.0391 175.832 61.2344 174.855 61.2344C173.871 61.2344 173.012 61.0703 172.277 60.7422C171.551 60.4141 170.945 59.9609 170.461 59.3828C169.977 58.7969 169.613 58.1172 169.371 57.3438C169.129 56.5625 169.008 55.7266 169.008 54.8359V54.4961C169.008 53.5977 169.129 52.7617 169.371 51.9883C169.613 51.207 169.977 50.5273 170.461 49.9492C170.945 49.3633 171.551 48.9062 172.277 48.5781C173.004 48.25 173.855 48.0859 174.832 48.0859C175.871 48.0859 176.781 48.2852 177.562 48.6836C178.352 49.082 178.969 49.6523 179.414 50.3945C179.867 51.1289 180.098 52 180.105 53.0078H176.93C176.922 52.5859 176.832 52.2031 176.66 51.8594C176.496 51.5156 176.254 51.2422 175.934 51.0391C175.621 50.8281 175.234 50.7227 174.773 50.7227C174.281 50.7227 173.879 50.8281 173.566 51.0391C173.254 51.2422 173.012 51.5234 172.84 51.8828C172.668 52.2344 172.547 52.6367 172.477 53.0898C172.414 53.5352 172.383 54.0039 172.383 54.4961V54.8359C172.383 55.3281 172.414 55.8008 172.477 56.2539C172.539 56.707 172.656 57.1094 172.828 57.4609C173.008 57.8125 173.254 58.0898 173.566 58.293C173.879 58.4961 174.285 58.5977 174.785 58.5977ZM188.273 48.3203V50.7109H180.891V48.3203H188.273ZM182.719 45.1914H186.094V57.1797C186.094 57.5469 186.141 57.8281 186.234 58.0234C186.336 58.2188 186.484 58.3555 186.68 58.4336C186.875 58.5039 187.121 58.5391 187.418 58.5391C187.629 58.5391 187.816 58.5312 187.98 58.5156C188.152 58.4922 188.297 58.4688 188.414 58.4453L188.426 60.9297C188.137 61.0234 187.824 61.0977 187.488 61.1523C187.152 61.207 186.781 61.2344 186.375 61.2344C185.633 61.2344 184.984 61.1133 184.43 60.8711C183.883 60.6211 183.461 60.2227 183.164 59.6758C182.867 59.1289 182.719 58.4102 182.719 57.5195V45.1914ZM203.027 54.918H198.68V52.1758H203.027C203.699 52.1758 204.246 52.0664 204.668 51.8477C205.09 51.6211 205.398 51.3086 205.594 50.9102C205.789 50.5117 205.887 50.0625 205.887 49.5625C205.887 49.0547 205.789 48.582 205.594 48.1445C205.398 47.707 205.09 47.3555 204.668 47.0898C204.246 46.8242 203.699 46.6914 203.027 46.6914H199.898V61H196.383V43.9375H203.027C204.363 43.9375 205.508 44.1797 206.461 44.6641C207.422 45.1406 208.156 45.8008 208.664 46.6445C209.172 47.4883 209.426 48.4531 209.426 49.5391C209.426 50.6406 209.172 51.5938 208.664 52.3984C208.156 53.2031 207.422 53.8242 206.461 54.2617C205.508 54.6992 204.363 54.918 203.027 54.918ZM215.016 51.0859V61H211.641V48.3203H214.816L215.016 51.0859ZM218.836 48.2383L218.777 51.3672C218.613 51.3438 218.414 51.3242 218.18 51.3086C217.953 51.2852 217.746 51.2734 217.559 51.2734C217.082 51.2734 216.668 51.3359 216.316 51.4609C215.973 51.5781 215.684 51.7539 215.449 51.9883C215.223 52.2227 215.051 52.5078 214.934 52.8438C214.824 53.1797 214.762 53.5625 214.746 53.9922L214.066 53.7812C214.066 52.9609 214.148 52.207 214.312 51.5195C214.477 50.8242 214.715 50.2188 215.027 49.7031C215.348 49.1875 215.738 48.7891 216.199 48.5078C216.66 48.2266 217.188 48.0859 217.781 48.0859C217.969 48.0859 218.16 48.1016 218.355 48.1328C218.551 48.1562 218.711 48.1914 218.836 48.2383ZM219.539 54.7891V54.543C219.539 53.6133 219.672 52.7578 219.938 51.9766C220.203 51.1875 220.59 50.5039 221.098 49.9258C221.605 49.3477 222.23 48.8984 222.973 48.5781C223.715 48.25 224.566 48.0859 225.527 48.0859C226.488 48.0859 227.344 48.25 228.094 48.5781C228.844 48.8984 229.473 49.3477 229.98 49.9258C230.496 50.5039 230.887 51.1875 231.152 51.9766C231.418 52.7578 231.551 53.6133 231.551 54.543V54.7891C231.551 55.7109 231.418 56.5664 231.152 57.3555C230.887 58.1367 230.496 58.8203 229.98 59.4062C229.473 59.9844 228.848 60.4336 228.105 60.7539C227.363 61.0742 226.512 61.2344 225.551 61.2344C224.59 61.2344 223.734 61.0742 222.984 60.7539C222.242 60.4336 221.613 59.9844 221.098 59.4062C220.59 58.8203 220.203 58.1367 219.938 57.3555C219.672 56.5664 219.539 55.7109 219.539 54.7891ZM222.914 54.543V54.7891C222.914 55.3203 222.961 55.8164 223.055 56.2773C223.148 56.7383 223.297 57.1445 223.5 57.4961C223.711 57.8398 223.984 58.1094 224.32 58.3047C224.656 58.5 225.066 58.5977 225.551 58.5977C226.02 58.5977 226.422 58.5 226.758 58.3047C227.094 58.1094 227.363 57.8398 227.566 57.4961C227.77 57.1445 227.918 56.7383 228.012 56.2773C228.113 55.8164 228.164 55.3203 228.164 54.7891V54.543C228.164 54.0273 228.113 53.543 228.012 53.0898C227.918 52.6289 227.766 52.2227 227.555 51.8711C227.352 51.5117 227.082 51.2305 226.746 51.0273C226.41 50.8242 226.004 50.7227 225.527 50.7227C225.051 50.7227 224.645 50.8242 224.309 51.0273C223.98 51.2305 223.711 51.5117 223.5 51.8711C223.297 52.2227 223.148 52.6289 223.055 53.0898C222.961 53.543 222.914 54.0273 222.914 54.543Z" fill="#888888"/>
<path d="M118.594 98.4219V104.75H101.086V98.4219H118.594ZM103.828 84.875V119H95.6016V84.875H103.828ZM124.125 84.875V119H115.922V84.875H124.125ZM127.992 106.578V106.086C127.992 104.227 128.258 102.516 128.789 100.953C129.32 99.375 130.102 98.0078 131.133 96.8516C132.164 95.6953 133.438 94.7969 134.953 94.1562C136.469 93.5 138.219 93.1719 140.203 93.1719C142.203 93.1719 143.961 93.5 145.477 94.1562C147.008 94.7969 148.289 95.6953 149.32 96.8516C150.352 98.0078 151.133 99.375 151.664 100.953C152.195 102.516 152.461 104.227 152.461 106.086V106.578C152.461 108.422 152.195 110.133 151.664 111.711C151.133 113.273 150.352 114.641 149.32 115.812C148.289 116.969 147.016 117.867 145.5 118.508C143.984 119.148 142.234 119.469 140.25 119.469C138.266 119.469 136.508 119.148 134.977 118.508C133.445 117.867 132.164 116.969 131.133 115.812C130.102 114.641 129.32 113.273 128.789 111.711C128.258 110.133 127.992 108.422 127.992 106.578ZM135.891 106.086V106.578C135.891 107.531 135.961 108.422 136.102 109.25C136.242 110.078 136.477 110.805 136.805 111.43C137.133 112.039 137.578 112.516 138.141 112.859C138.703 113.203 139.406 113.375 140.25 113.375C141.078 113.375 141.766 113.203 142.312 112.859C142.875 112.516 143.32 112.039 143.648 111.43C143.977 110.805 144.211 110.078 144.352 109.25C144.492 108.422 144.562 107.531 144.562 106.578V106.086C144.562 105.164 144.492 104.297 144.352 103.484C144.211 102.656 143.977 101.93 143.648 101.305C143.32 100.664 142.875 100.164 142.312 99.8047C141.75 99.4453 141.047 99.2656 140.203 99.2656C139.375 99.2656 138.68 99.4453 138.117 99.8047C137.57 100.164 137.133 100.664 136.805 101.305C136.477 101.93 136.242 102.656 136.102 103.484C135.961 104.297 135.891 105.164 135.891 106.086ZM163.688 111.453L168.375 93.6406H173.32L171.562 102.57L166.922 119H162.961L163.688 111.453ZM161.836 93.6406L164.742 111.312L165.07 119H160.266L154.266 93.6406H161.836ZM177.492 110.938L180.422 93.6406H187.992L182.039 119H177.234L177.492 110.938ZM173.883 93.6406L178.617 111.406L179.344 119H175.336L170.789 102.617L169.102 93.6406H173.883ZM216.164 93.6406V99.125H200.883V93.6406H216.164ZM204.094 87.3359H211.992V110.727C211.992 111.398 212.07 111.922 212.227 112.297C212.383 112.656 212.648 112.914 213.023 113.07C213.414 113.211 213.93 113.281 214.57 113.281C215.023 113.281 215.398 113.273 215.695 113.258C215.992 113.227 216.273 113.188 216.539 113.141V118.789C215.867 119.008 215.164 119.172 214.43 119.281C213.695 119.406 212.914 119.469 212.086 119.469C210.398 119.469 208.953 119.203 207.75 118.672C206.562 118.141 205.656 117.305 205.031 116.164C204.406 115.023 204.094 113.539 204.094 111.711V87.3359ZM217.617 106.578V106.086C217.617 104.227 217.883 102.516 218.414 100.953C218.945 99.375 219.727 98.0078 220.758 96.8516C221.789 95.6953 223.062 94.7969 224.578 94.1562C226.094 93.5 227.844 93.1719 229.828 93.1719C231.828 93.1719 233.586 93.5 235.102 94.1562C236.633 94.7969 237.914 95.6953 238.945 96.8516C239.977 98.0078 240.758 99.375 241.289 100.953C241.82 102.516 242.086 104.227 242.086 106.086V106.578C242.086 108.422 241.82 110.133 241.289 111.711C240.758 113.273 239.977 114.641 238.945 115.812C237.914 116.969 236.641 117.867 235.125 118.508C233.609 119.148 231.859 119.469 229.875 119.469C227.891 119.469 226.133 119.148 224.602 118.508C223.07 117.867 221.789 116.969 220.758 115.812C219.727 114.641 218.945 113.273 218.414 111.711C217.883 110.133 217.617 108.422 217.617 106.578ZM225.516 106.086V106.578C225.516 107.531 225.586 108.422 225.727 109.25C225.867 110.078 226.102 110.805 226.43 111.43C226.758 112.039 227.203 112.516 227.766 112.859C228.328 113.203 229.031 113.375 229.875 113.375C230.703 113.375 231.391 113.203 231.938 112.859C232.5 112.516 232.945 112.039 233.273 111.43C233.602 110.805 233.836 110.078 233.977 109.25C234.117 108.422 234.188 107.531 234.188 106.578V106.086C234.188 105.164 234.117 104.297 233.977 103.484C233.836 102.656 233.602 101.93 233.273 101.305C232.945 100.664 232.5 100.164 231.938 99.8047C231.375 99.4453 230.672 99.2656 229.828 99.2656C229 99.2656 228.305 99.4453 227.742 99.8047C227.195 100.164 226.758 100.664 226.43 101.305C226.102 101.93 225.867 102.656 225.727 103.484C225.586 104.297 225.516 105.164 225.516 106.086ZM257.93 84.875H271.359C273.984 84.875 276.266 85.2656 278.203 86.0469C280.141 86.8281 281.633 87.9844 282.68 89.5156C283.742 91.0469 284.273 92.9375 284.273 95.1875C284.273 97.1406 283.969 98.7734 283.359 100.086C282.75 101.398 281.898 102.484 280.805 103.344C279.727 104.188 278.469 104.883 277.031 105.43L274.336 106.953H263.062L263.016 100.602H271.359C272.406 100.602 273.273 100.414 273.961 100.039C274.648 99.6641 275.164 99.1328 275.508 98.4453C275.867 97.7422 276.047 96.9062 276.047 95.9375C276.047 94.9531 275.867 94.1094 275.508 93.4062C275.148 92.7031 274.617 92.1641 273.914 91.7891C273.227 91.4141 272.375 91.2266 271.359 91.2266H266.156V119H257.93V84.875ZM276.609 119L269.062 103.906L277.781 103.859L285.422 118.648V119H276.609ZM303.68 112.836V93.6406H311.602V119H304.195L303.68 112.836ZM304.43 107.68L306.492 107.633C306.492 109.336 306.289 110.914 305.883 112.367C305.477 113.805 304.875 115.055 304.078 116.117C303.297 117.18 302.328 118.008 301.172 118.602C300.031 119.18 298.711 119.469 297.211 119.469C295.961 119.469 294.812 119.297 293.766 118.953C292.734 118.594 291.844 118.039 291.094 117.289C290.344 116.523 289.758 115.547 289.336 114.359C288.93 113.156 288.727 111.719 288.727 110.047V93.6406H296.625V110.094C296.625 110.656 296.695 111.141 296.836 111.547C296.977 111.953 297.18 112.297 297.445 112.578C297.711 112.844 298.039 113.047 298.43 113.188C298.836 113.312 299.297 113.375 299.812 113.375C301 113.375 301.93 113.125 302.602 112.625C303.273 112.125 303.742 111.445 304.008 110.586C304.289 109.727 304.43 108.758 304.43 107.68ZM323.719 99.0547V119H315.82V93.6406H323.227L323.719 99.0547ZM322.781 105.453L320.93 105.5C320.93 103.562 321.164 101.836 321.633 100.32C322.102 98.7891 322.766 97.4922 323.625 96.4297C324.484 95.3672 325.508 94.5625 326.695 94.0156C327.898 93.4531 329.234 93.1719 330.703 93.1719C331.875 93.1719 332.945 93.3438 333.914 93.6875C334.898 94.0312 335.742 94.5859 336.445 95.3516C337.164 96.1172 337.711 97.1328 338.086 98.3984C338.477 99.6484 338.672 101.195 338.672 103.039V119H330.727V103.016C330.727 102 330.586 101.227 330.305 100.695C330.023 100.148 329.617 99.7734 329.086 99.5703C328.555 99.3672 327.906 99.2656 327.141 99.2656C326.328 99.2656 325.641 99.4219 325.078 99.7344C324.516 100.047 324.062 100.484 323.719 101.047C323.391 101.594 323.148 102.242 322.992 102.992C322.852 103.742 322.781 104.562 322.781 105.453Z" fill="black"/>
<path d="M1134 0H1348C1356.28 0 1363 6.71573 1363 15V148C1363 156.284 1356.28 163 1348 163H1134V0Z" fill="#0095FF"/>
<path d="M1221 46.5V116.5L1276 81.5L1221 46.5Z" fill="white"/>
</svg>
