<svg width="1384" height="163" viewBox="0 0 1384 163" fill="none" xmlns="http://www.w3.org/2000/svg">
<path d="M0 15C0 6.71573 6.71573 0 15 0H37V163H15C6.71573 163 0 156.284 0 148V15Z" fill="#0095FF"/>
<rect width="1094" height="163" transform="translate(37)" fill="#F0F0F0"/>
<path d="M101.906 53.9219L94.3945 51.2383V48.0859L104.602 52.375V54.6367L101.906 53.9219ZM94.3945 56.1719L101.918 53.4297L104.602 52.7852V55.0352L94.3945 59.3242V56.1719ZM119.543 54.918H115.195V52.1758H119.543C120.215 52.1758 120.762 52.0664 121.184 51.8477C121.605 51.6211 121.914 51.3086 122.109 50.9102C122.305 50.5117 122.402 50.0625 122.402 49.5625C122.402 49.0547 122.305 48.582 122.109 48.1445C121.914 47.707 121.605 47.3555 121.184 47.0898C120.762 46.8242 120.215 46.6914 119.543 46.6914H116.414V61H112.898V43.9375H119.543C120.879 43.9375 122.023 44.1797 122.977 44.6641C123.938 45.1406 124.672 45.8008 125.18 46.6445C125.688 47.4883 125.941 48.4531 125.941 49.5391C125.941 50.6406 125.688 51.5938 125.18 52.3984C124.672 53.2031 123.938 53.8242 122.977 54.2617C122.023 54.6992 120.879 54.918 119.543 54.918ZM131.531 51.0859V61H128.156V48.3203H131.332L131.531 51.0859ZM135.352 48.2383L135.293 51.3672C135.129 51.3438 134.93 51.3242 134.695 51.3086C134.469 51.2852 134.262 51.2734 134.074 51.2734C133.598 51.2734 133.184 51.3359 132.832 51.4609C132.488 51.5781 132.199 51.7539 131.965 51.9883C131.738 52.2227 131.566 52.5078 131.449 52.8438C131.34 53.1797 131.277 53.5625 131.262 53.9922L130.582 53.7812C130.582 52.9609 130.664 52.207 130.828 51.5195C130.992 50.8242 131.23 50.2188 131.543 49.7031C131.863 49.1875 132.254 48.7891 132.715 48.5078C133.176 48.2266 133.703 48.0859 134.297 48.0859C134.484 48.0859 134.676 48.1016 134.871 48.1328C135.066 48.1562 135.227 48.1914 135.352 48.2383ZM142.547 61.2344C141.562 61.2344 140.68 61.0781 139.898 60.7656C139.117 60.4453 138.453 60.0039 137.906 59.4414C137.367 58.8789 136.953 58.2266 136.664 57.4844C136.375 56.7344 136.23 55.9375 136.23 55.0938V54.625C136.23 53.6641 136.367 52.7852 136.641 51.9883C136.914 51.1914 137.305 50.5 137.812 49.9141C138.328 49.3281 138.953 48.8789 139.688 48.5664C140.422 48.2461 141.25 48.0859 142.172 48.0859C143.07 48.0859 143.867 48.2344 144.562 48.5312C145.258 48.8281 145.84 49.25 146.309 49.7969C146.785 50.3438 147.145 51 147.387 51.7656C147.629 52.5234 147.75 53.3672 147.75 54.2969V55.7031H137.672V53.4531H144.434V53.1953C144.434 52.7266 144.348 52.3086 144.176 51.9414C144.012 51.5664 143.762 51.2695 143.426 51.0508C143.09 50.832 142.66 50.7227 142.137 50.7227C141.691 50.7227 141.309 50.8203 140.988 51.0156C140.668 51.2109 140.406 51.4844 140.203 51.8359C140.008 52.1875 139.859 52.6016 139.758 53.0781C139.664 53.5469 139.617 54.0625 139.617 54.625V55.0938C139.617 55.6016 139.688 56.0703 139.828 56.5C139.977 56.9297 140.184 57.3008 140.449 57.6133C140.723 57.9258 141.051 58.168 141.434 58.3398C141.824 58.5117 142.266 58.5977 142.758 58.5977C143.367 58.5977 143.934 58.4805 144.457 58.2461C144.988 58.0039 145.445 57.6406 145.828 57.1562L147.469 58.9375C147.203 59.3203 146.84 59.6875 146.379 60.0391C145.926 60.3906 145.379 60.6797 144.738 60.9062C144.098 61.125 143.367 61.2344 142.547 61.2344ZM157.16 58.2344V43H160.559V61H157.5L157.16 58.2344ZM149.145 54.8125V54.5664C149.145 53.5977 149.254 52.7188 149.473 51.9297C149.691 51.1328 150.012 50.4492 150.434 49.8789C150.855 49.3086 151.375 48.8672 151.992 48.5547C152.609 48.2422 153.312 48.0859 154.102 48.0859C154.844 48.0859 155.492 48.2422 156.047 48.5547C156.609 48.8672 157.086 49.3125 157.477 49.8906C157.875 50.4609 158.195 51.1367 158.438 51.918C158.68 52.6914 158.855 53.5391 158.965 54.4609V55C158.855 55.8828 158.68 56.7031 158.438 57.4609C158.195 58.2188 157.875 58.8828 157.477 59.4531C157.086 60.0156 156.609 60.4531 156.047 60.7656C155.484 61.0781 154.828 61.2344 154.078 61.2344C153.289 61.2344 152.586 61.0742 151.969 60.7539C151.359 60.4336 150.844 59.9844 150.422 59.4062C150.008 58.8281 149.691 58.1484 149.473 57.3672C149.254 56.5859 149.145 55.7344 149.145 54.8125ZM152.52 54.5664V54.8125C152.52 55.3359 152.559 55.8242 152.637 56.2773C152.723 56.7305 152.859 57.1328 153.047 57.4844C153.242 57.8281 153.492 58.0977 153.797 58.293C154.109 58.4805 154.488 58.5742 154.934 58.5742C155.512 58.5742 155.988 58.4453 156.363 58.1875C156.738 57.9219 157.023 57.5586 157.219 57.0977C157.422 56.6367 157.539 56.1055 157.57 55.5039V53.9688C157.547 53.4766 157.477 53.0352 157.359 52.6445C157.25 52.2461 157.086 51.9062 156.867 51.625C156.656 51.3438 156.391 51.125 156.07 50.9688C155.758 50.8125 155.387 50.7344 154.957 50.7344C154.52 50.7344 154.145 50.8359 153.832 51.0391C153.52 51.2344 153.266 51.5039 153.07 51.8477C152.883 52.1914 152.742 52.5977 152.648 53.0664C152.562 53.5273 152.52 54.0273 152.52 54.5664ZM166.758 48.3203V61H163.371V48.3203H166.758ZM163.16 45.0156C163.16 44.5234 163.332 44.1172 163.676 43.7969C164.02 43.4766 164.48 43.3164 165.059 43.3164C165.629 43.3164 166.086 43.4766 166.43 43.7969C166.781 44.1172 166.957 44.5234 166.957 45.0156C166.957 45.5078 166.781 45.9141 166.43 46.2344C166.086 46.5547 165.629 46.7148 165.059 46.7148C164.48 46.7148 164.02 46.5547 163.676 46.2344C163.332 45.9141 163.16 45.5078 163.16 45.0156ZM174.785 58.5977C175.199 58.5977 175.566 58.5195 175.887 58.3633C176.207 58.1992 176.457 57.9727 176.637 57.6836C176.824 57.3867 176.922 57.0391 176.93 56.6406H180.105C180.098 57.5312 179.859 58.3242 179.391 59.0195C178.922 59.707 178.293 60.25 177.504 60.6484C176.715 61.0391 175.832 61.2344 174.855 61.2344C173.871 61.2344 173.012 61.0703 172.277 60.7422C171.551 60.4141 170.945 59.9609 170.461 59.3828C169.977 58.7969 169.613 58.1172 169.371 57.3438C169.129 56.5625 169.008 55.7266 169.008 54.8359V54.4961C169.008 53.5977 169.129 52.7617 169.371 51.9883C169.613 51.207 169.977 50.5273 170.461 49.9492C170.945 49.3633 171.551 48.9062 172.277 48.5781C173.004 48.25 173.855 48.0859 174.832 48.0859C175.871 48.0859 176.781 48.2852 177.562 48.6836C178.352 49.082 178.969 49.6523 179.414 50.3945C179.867 51.1289 180.098 52 180.105 53.0078H176.93C176.922 52.5859 176.832 52.2031 176.66 51.8594C176.496 51.5156 176.254 51.2422 175.934 51.0391C175.621 50.8281 175.234 50.7227 174.773 50.7227C174.281 50.7227 173.879 50.8281 173.566 51.0391C173.254 51.2422 173.012 51.5234 172.84 51.8828C172.668 52.2344 172.547 52.6367 172.477 53.0898C172.414 53.5352 172.383 54.0039 172.383 54.4961V54.8359C172.383 55.3281 172.414 55.8008 172.477 56.2539C172.539 56.707 172.656 57.1094 172.828 57.4609C173.008 57.8125 173.254 58.0898 173.566 58.293C173.879 58.4961 174.285 58.5977 174.785 58.5977ZM188.273 48.3203V50.7109H180.891V48.3203H188.273ZM182.719 45.1914H186.094V57.1797C186.094 57.5469 186.141 57.8281 186.234 58.0234C186.336 58.2188 186.484 58.3555 186.68 58.4336C186.875 58.5039 187.121 58.5391 187.418 58.5391C187.629 58.5391 187.816 58.5312 187.98 58.5156C188.152 58.4922 188.297 58.4688 188.414 58.4453L188.426 60.9297C188.137 61.0234 187.824 61.0977 187.488 61.1523C187.152 61.207 186.781 61.2344 186.375 61.2344C185.633 61.2344 184.984 61.1133 184.43 60.8711C183.883 60.6211 183.461 60.2227 183.164 59.6758C182.867 59.1289 182.719 58.4102 182.719 57.5195V45.1914ZM203.027 54.918H198.68V52.1758H203.027C203.699 52.1758 204.246 52.0664 204.668 51.8477C205.09 51.6211 205.398 51.3086 205.594 50.9102C205.789 50.5117 205.887 50.0625 205.887 49.5625C205.887 49.0547 205.789 48.582 205.594 48.1445C205.398 47.707 205.09 47.3555 204.668 47.0898C204.246 46.8242 203.699 46.6914 203.027 46.6914H199.898V61H196.383V43.9375H203.027C204.363 43.9375 205.508 44.1797 206.461 44.6641C207.422 45.1406 208.156 45.8008 208.664 46.6445C209.172 47.4883 209.426 48.4531 209.426 49.5391C209.426 50.6406 209.172 51.5938 208.664 52.3984C208.156 53.2031 207.422 53.8242 206.461 54.2617C205.508 54.6992 204.363 54.918 203.027 54.918ZM215.016 51.0859V61H211.641V48.3203H214.816L215.016 51.0859ZM218.836 48.2383L218.777 51.3672C218.613 51.3438 218.414 51.3242 218.18 51.3086C217.953 51.2852 217.746 51.2734 217.559 51.2734C217.082 51.2734 216.668 51.3359 216.316 51.4609C215.973 51.5781 215.684 51.7539 215.449 51.9883C215.223 52.2227 215.051 52.5078 214.934 52.8438C214.824 53.1797 214.762 53.5625 214.746 53.9922L214.066 53.7812C214.066 52.9609 214.148 52.207 214.312 51.5195C214.477 50.8242 214.715 50.2188 215.027 49.7031C215.348 49.1875 215.738 48.7891 216.199 48.5078C216.66 48.2266 217.188 48.0859 217.781 48.0859C217.969 48.0859 218.16 48.1016 218.355 48.1328C218.551 48.1562 218.711 48.1914 218.836 48.2383ZM219.539 54.7891V54.543C219.539 53.6133 219.672 52.7578 219.938 51.9766C220.203 51.1875 220.59 50.5039 221.098 49.9258C221.605 49.3477 222.23 48.8984 222.973 48.5781C223.715 48.25 224.566 48.0859 225.527 48.0859C226.488 48.0859 227.344 48.25 228.094 48.5781C228.844 48.8984 229.473 49.3477 229.98 49.9258C230.496 50.5039 230.887 51.1875 231.152 51.9766C231.418 52.7578 231.551 53.6133 231.551 54.543V54.7891C231.551 55.7109 231.418 56.5664 231.152 57.3555C230.887 58.1367 230.496 58.8203 229.98 59.4062C229.473 59.9844 228.848 60.4336 228.105 60.7539C227.363 61.0742 226.512 61.2344 225.551 61.2344C224.59 61.2344 223.734 61.0742 222.984 60.7539C222.242 60.4336 221.613 59.9844 221.098 59.4062C220.59 58.8203 220.203 58.1367 219.938 57.3555C219.672 56.5664 219.539 55.7109 219.539 54.7891ZM222.914 54.543V54.7891C222.914 55.3203 222.961 55.8164 223.055 56.2773C223.148 56.7383 223.297 57.1445 223.5 57.4961C223.711 57.8398 223.984 58.1094 224.32 58.3047C224.656 58.5 225.066 58.5977 225.551 58.5977C226.02 58.5977 226.422 58.5 226.758 58.3047C227.094 58.1094 227.363 57.8398 227.566 57.4961C227.77 57.1445 227.918 56.7383 228.012 56.2773C228.113 55.8164 228.164 55.3203 228.164 54.7891V54.543C228.164 54.0273 228.113 53.543 228.012 53.0898C227.918 52.6289 227.766 52.2227 227.555 51.8711C227.352 51.5117 227.082 51.2305 226.746 51.0273C226.41 50.8242 226.004 50.7227 225.527 50.7227C225.051 50.7227 224.645 50.8242 224.309 51.0273C223.98 51.2305 223.711 51.5117 223.5 51.8711C223.297 52.2227 223.148 52.6289 223.055 53.0898C222.961 53.543 222.914 54.0273 222.914 54.543Z" fill="#888888"/>
<path d="M112.125 84.875V119H103.898V84.875H112.125ZM122.391 84.875V91.2266H93.8672V84.875H122.391ZM134.695 112.625V102.172C134.695 101.453 134.594 100.836 134.391 100.32C134.188 99.8047 133.867 99.4062 133.43 99.125C132.992 98.8281 132.406 98.6797 131.672 98.6797C131.078 98.6797 130.57 98.7812 130.148 98.9844C129.727 99.1875 129.406 99.4922 129.188 99.8984C128.969 100.305 128.859 100.82 128.859 101.445H120.961C120.961 100.273 121.219 99.1875 121.734 98.1875C122.266 97.1719 123.016 96.2891 123.984 95.5391C124.969 94.7891 126.141 94.2109 127.5 93.8047C128.875 93.3828 130.406 93.1719 132.094 93.1719C134.109 93.1719 135.906 93.5078 137.484 94.1797C139.078 94.8516 140.336 95.8594 141.258 97.2031C142.18 98.5312 142.641 100.203 142.641 102.219V112.602C142.641 114.258 142.734 115.516 142.922 116.375C143.109 117.219 143.375 117.961 143.719 118.602V119H135.797C135.422 118.219 135.141 117.266 134.953 116.141C134.781 115 134.695 113.828 134.695 112.625ZM135.656 103.508L135.703 107.727H132.211C131.477 107.727 130.852 107.828 130.336 108.031C129.836 108.234 129.43 108.516 129.117 108.875C128.82 109.219 128.602 109.609 128.461 110.047C128.336 110.484 128.273 110.945 128.273 111.43C128.273 111.898 128.383 112.32 128.602 112.695C128.836 113.055 129.148 113.336 129.539 113.539C129.93 113.742 130.367 113.844 130.852 113.844C131.727 113.844 132.469 113.68 133.078 113.352C133.703 113.008 134.18 112.594 134.508 112.109C134.836 111.625 135 111.172 135 110.75L136.734 113.984C136.422 114.609 136.062 115.242 135.656 115.883C135.266 116.523 134.773 117.117 134.18 117.664C133.602 118.195 132.891 118.633 132.047 118.977C131.203 119.305 130.18 119.469 128.977 119.469C127.414 119.469 125.977 119.148 124.664 118.508C123.367 117.867 122.328 116.977 121.547 115.836C120.766 114.68 120.375 113.352 120.375 111.852C120.375 110.539 120.609 109.367 121.078 108.336C121.562 107.305 122.289 106.43 123.258 105.711C124.227 104.992 125.461 104.445 126.961 104.07C128.461 103.695 130.227 103.508 132.258 103.508H135.656ZM147.094 83H154.992V112.766L154.172 119H147.094V83ZM170.555 106.039V106.531C170.555 108.453 170.359 110.203 169.969 111.781C169.578 113.359 168.977 114.727 168.164 115.883C167.352 117.023 166.328 117.906 165.094 118.531C163.859 119.156 162.398 119.469 160.711 119.469C159.18 119.469 157.867 119.141 156.773 118.484C155.68 117.812 154.766 116.891 154.031 115.719C153.297 114.531 152.703 113.164 152.25 111.617C151.797 110.055 151.438 108.383 151.172 106.602V106.016C151.438 104.25 151.797 102.594 152.25 101.047C152.703 99.4844 153.297 98.1172 154.031 96.9453C154.766 95.7578 155.672 94.8359 156.75 94.1797C157.844 93.5078 159.148 93.1719 160.664 93.1719C162.367 93.1719 163.836 93.4922 165.07 94.1328C166.32 94.7734 167.352 95.6719 168.164 96.8281C168.977 97.9844 169.578 99.3438 169.969 100.906C170.359 102.469 170.555 104.18 170.555 106.039ZM162.656 106.531V106.039C162.656 105.117 162.602 104.25 162.492 103.438C162.383 102.625 162.188 101.906 161.906 101.281C161.625 100.656 161.227 100.164 160.711 99.8047C160.195 99.4453 159.523 99.2656 158.695 99.2656C157.852 99.2656 157.141 99.4062 156.562 99.6875C156 99.9688 155.547 100.375 155.203 100.906C154.875 101.422 154.641 102.062 154.5 102.828C154.359 103.578 154.297 104.43 154.312 105.383V107.234C154.281 108.531 154.398 109.641 154.664 110.562C154.93 111.484 155.391 112.188 156.047 112.672C156.703 113.156 157.602 113.398 158.742 113.398C159.586 113.398 160.266 113.234 160.781 112.906C161.312 112.578 161.711 112.109 161.977 111.5C162.242 110.891 162.422 110.164 162.516 109.32C162.609 108.477 162.656 107.547 162.656 106.531ZM182.414 83V119H174.492V83H182.414ZM199.57 119.469C197.508 119.469 195.664 119.148 194.039 118.508C192.414 117.852 191.039 116.953 189.914 115.812C188.805 114.672 187.953 113.359 187.359 111.875C186.781 110.391 186.492 108.82 186.492 107.164V106.273C186.492 104.414 186.75 102.695 187.266 101.117C187.781 99.5234 188.547 98.1328 189.562 96.9453C190.578 95.7578 191.852 94.8359 193.383 94.1797C194.914 93.5078 196.695 93.1719 198.727 93.1719C200.523 93.1719 202.133 93.4609 203.555 94.0391C204.977 94.6172 206.18 95.4453 207.164 96.5234C208.164 97.6016 208.922 98.9062 209.438 100.438C209.969 101.969 210.234 103.688 210.234 105.594V108.805H189.516V103.859H202.523V103.25C202.539 102.406 202.391 101.688 202.078 101.094C201.781 100.5 201.344 100.047 200.766 99.7344C200.188 99.4219 199.484 99.2656 198.656 99.2656C197.797 99.2656 197.086 99.4531 196.523 99.8281C195.977 100.203 195.547 100.719 195.234 101.375C194.938 102.016 194.727 102.758 194.602 103.602C194.477 104.445 194.414 105.336 194.414 106.273V107.164C194.414 108.102 194.539 108.953 194.789 109.719C195.055 110.484 195.43 111.141 195.914 111.688C196.414 112.219 197.008 112.633 197.695 112.93C198.398 113.227 199.195 113.375 200.086 113.375C201.164 113.375 202.227 113.172 203.273 112.766C204.32 112.359 205.219 111.688 205.969 110.75L209.555 115.016C209.039 115.75 208.305 116.461 207.352 117.148C206.414 117.836 205.289 118.398 203.977 118.836C202.664 119.258 201.195 119.469 199.57 119.469ZM224.414 106.578V106.086C224.414 104.227 224.68 102.516 225.211 100.953C225.742 99.375 226.523 98.0078 227.555 96.8516C228.586 95.6953 229.859 94.7969 231.375 94.1562C232.891 93.5 234.641 93.1719 236.625 93.1719C238.625 93.1719 240.383 93.5 241.898 94.1562C243.43 94.7969 244.711 95.6953 245.742 96.8516C246.773 98.0078 247.555 99.375 248.086 100.953C248.617 102.516 248.883 104.227 248.883 106.086V106.578C248.883 108.422 248.617 110.133 248.086 111.711C247.555 113.273 246.773 114.641 245.742 115.812C244.711 116.969 243.438 117.867 241.922 118.508C240.406 119.148 238.656 119.469 236.672 119.469C234.688 119.469 232.93 119.148 231.398 118.508C229.867 117.867 228.586 116.969 227.555 115.812C226.523 114.641 225.742 113.273 225.211 111.711C224.68 110.133 224.414 108.422 224.414 106.578ZM232.312 106.086V106.578C232.312 107.531 232.383 108.422 232.523 109.25C232.664 110.078 232.898 110.805 233.227 111.43C233.555 112.039 234 112.516 234.562 112.859C235.125 113.203 235.828 113.375 236.672 113.375C237.5 113.375 238.188 113.203 238.734 112.859C239.297 112.516 239.742 112.039 240.07 111.43C240.398 110.805 240.633 110.078 240.773 109.25C240.914 108.422 240.984 107.531 240.984 106.578V106.086C240.984 105.164 240.914 104.297 240.773 103.484C240.633 102.656 240.398 101.93 240.07 101.305C239.742 100.664 239.297 100.164 238.734 99.8047C238.172 99.4453 237.469 99.2656 236.625 99.2656C235.797 99.2656 235.102 99.4453 234.539 99.8047C233.992 100.164 233.555 100.664 233.227 101.305C232.898 101.93 232.664 102.656 232.523 103.484C232.383 104.297 232.312 105.164 232.312 106.086ZM262.078 119H254.133V91.5781C254.133 89.6094 254.531 87.9531 255.328 86.6094C256.125 85.2656 257.25 84.25 258.703 83.5625C260.156 82.8594 261.875 82.5078 263.859 82.5078C264.547 82.5078 265.195 82.5547 265.805 82.6484C266.414 82.7422 267.008 82.8594 267.586 83L267.609 88.8125C267.328 88.7344 267.039 88.6797 266.742 88.6484C266.445 88.6172 266.078 88.6016 265.641 88.6016C264.875 88.6016 264.227 88.7188 263.695 88.9531C263.164 89.1719 262.758 89.5078 262.477 89.9609C262.211 90.3984 262.078 90.9375 262.078 91.5781V119ZM267 93.6406V99.125H250.477V93.6406H267ZM301.57 107.445H309.773C309.664 109.82 309.023 111.914 307.852 113.727C306.68 115.539 305.055 116.953 302.977 117.969C300.914 118.969 298.477 119.469 295.664 119.469C293.383 119.469 291.344 119.086 289.547 118.32C287.766 117.555 286.25 116.453 285 115.016C283.766 113.578 282.82 111.836 282.164 109.789C281.523 107.742 281.203 105.438 281.203 102.875V101.023C281.203 98.4609 281.539 96.1562 282.211 94.1094C282.898 92.0469 283.867 90.2969 285.117 88.8594C286.383 87.4062 287.898 86.2969 289.664 85.5312C291.43 84.7656 293.391 84.3828 295.547 84.3828C298.516 84.3828 301.023 84.9141 303.07 85.9766C305.117 87.0391 306.703 88.5 307.828 90.3594C308.953 92.2031 309.617 94.3047 309.82 96.6641H301.617C301.586 95.3828 301.367 94.3125 300.961 93.4531C300.555 92.5781 299.914 91.9219 299.039 91.4844C298.164 91.0469 297 90.8281 295.547 90.8281C294.531 90.8281 293.648 91.0156 292.898 91.3906C292.148 91.7656 291.523 92.3594 291.023 93.1719C290.523 93.9844 290.148 95.0391 289.898 96.3359C289.664 97.6172 289.547 99.1641 289.547 100.977V102.875C289.547 104.688 289.656 106.234 289.875 107.516C290.094 108.797 290.445 109.844 290.93 110.656C291.414 111.469 292.039 112.07 292.805 112.461C293.586 112.836 294.539 113.023 295.664 113.023C296.914 113.023 297.969 112.828 298.828 112.438C299.688 112.031 300.352 111.422 300.82 110.609C301.289 109.781 301.539 108.727 301.57 107.445ZM312.305 106.578V106.086C312.305 104.227 312.57 102.516 313.102 100.953C313.633 99.375 314.414 98.0078 315.445 96.8516C316.477 95.6953 317.75 94.7969 319.266 94.1562C320.781 93.5 322.531 93.1719 324.516 93.1719C326.516 93.1719 328.273 93.5 329.789 94.1562C331.32 94.7969 332.602 95.6953 333.633 96.8516C334.664 98.0078 335.445 99.375 335.977 100.953C336.508 102.516 336.773 104.227 336.773 106.086V106.578C336.773 108.422 336.508 110.133 335.977 111.711C335.445 113.273 334.664 114.641 333.633 115.812C332.602 116.969 331.328 117.867 329.812 118.508C328.297 119.148 326.547 119.469 324.562 119.469C322.578 119.469 320.82 119.148 319.289 118.508C317.758 117.867 316.477 116.969 315.445 115.812C314.414 114.641 313.633 113.273 313.102 111.711C312.57 110.133 312.305 108.422 312.305 106.578ZM320.203 106.086V106.578C320.203 107.531 320.273 108.422 320.414 109.25C320.555 110.078 320.789 110.805 321.117 111.43C321.445 112.039 321.891 112.516 322.453 112.859C323.016 113.203 323.719 113.375 324.562 113.375C325.391 113.375 326.078 113.203 326.625 112.859C327.188 112.516 327.633 112.039 327.961 111.43C328.289 110.805 328.523 110.078 328.664 109.25C328.805 108.422 328.875 107.531 328.875 106.578V106.086C328.875 105.164 328.805 104.297 328.664 103.484C328.523 102.656 328.289 101.93 327.961 101.305C327.633 100.664 327.188 100.164 326.625 99.8047C326.062 99.4453 325.359 99.2656 324.516 99.2656C323.688 99.2656 322.992 99.4453 322.43 99.8047C321.883 100.164 321.445 100.664 321.117 101.305C320.789 101.93 320.555 102.656 320.414 103.484C320.273 104.297 320.203 105.164 320.203 106.086ZM348.047 99.0547V119H340.148V93.6406H347.555L348.047 99.0547ZM347.109 105.453L345.258 105.5C345.258 103.562 345.492 101.836 345.961 100.32C346.43 98.7891 347.094 97.4922 347.953 96.4297C348.812 95.3672 349.836 94.5625 351.023 94.0156C352.227 93.4531 353.562 93.1719 355.031 93.1719C356.203 93.1719 357.273 93.3438 358.242 93.6875C359.227 94.0312 360.07 94.5859 360.773 95.3516C361.492 96.1172 362.039 97.1328 362.414 98.3984C362.805 99.6484 363 101.195 363 103.039V119H355.055V103.016C355.055 102 354.914 101.227 354.633 100.695C354.352 100.148 353.945 99.7734 353.414 99.5703C352.883 99.3672 352.234 99.2656 351.469 99.2656C350.656 99.2656 349.969 99.4219 349.406 99.7344C348.844 100.047 348.391 100.484 348.047 101.047C347.719 101.594 347.477 102.242 347.32 102.992C347.18 103.742 347.109 104.562 347.109 105.453ZM380.742 93.6406V99.125H365.461V93.6406H380.742ZM368.672 87.3359H376.57V110.727C376.57 111.398 376.648 111.922 376.805 112.297C376.961 112.656 377.227 112.914 377.602 113.07C377.992 113.211 378.508 113.281 379.148 113.281C379.602 113.281 379.977 113.273 380.273 113.258C380.57 113.227 380.852 113.188 381.117 113.141V118.789C380.445 119.008 379.742 119.172 379.008 119.281C378.273 119.406 377.492 119.469 376.664 119.469C374.977 119.469 373.531 119.203 372.328 118.672C371.141 118.141 370.234 117.305 369.609 116.164C368.984 115.023 368.672 113.539 368.672 111.711V87.3359ZM396.164 119.469C394.102 119.469 392.258 119.148 390.633 118.508C389.008 117.852 387.633 116.953 386.508 115.812C385.398 114.672 384.547 113.359 383.953 111.875C383.375 110.391 383.086 108.82 383.086 107.164V106.273C383.086 104.414 383.344 102.695 383.859 101.117C384.375 99.5234 385.141 98.1328 386.156 96.9453C387.172 95.7578 388.445 94.8359 389.977 94.1797C391.508 93.5078 393.289 93.1719 395.32 93.1719C397.117 93.1719 398.727 93.4609 400.148 94.0391C401.57 94.6172 402.773 95.4453 403.758 96.5234C404.758 97.6016 405.516 98.9062 406.031 100.438C406.562 101.969 406.828 103.688 406.828 105.594V108.805H386.109V103.859H399.117V103.25C399.133 102.406 398.984 101.688 398.672 101.094C398.375 100.5 397.938 100.047 397.359 99.7344C396.781 99.4219 396.078 99.2656 395.25 99.2656C394.391 99.2656 393.68 99.4531 393.117 99.8281C392.57 100.203 392.141 100.719 391.828 101.375C391.531 102.016 391.32 102.758 391.195 103.602C391.07 104.445 391.008 105.336 391.008 106.273V107.164C391.008 108.102 391.133 108.953 391.383 109.719C391.648 110.484 392.023 111.141 392.508 111.688C393.008 112.219 393.602 112.633 394.289 112.93C394.992 113.227 395.789 113.375 396.68 113.375C397.758 113.375 398.82 113.172 399.867 112.766C400.914 112.359 401.812 111.688 402.562 110.75L406.148 115.016C405.633 115.75 404.898 116.461 403.945 117.148C403.008 117.836 401.883 118.398 400.57 118.836C399.258 119.258 397.789 119.469 396.164 119.469ZM417.797 99.0547V119H409.898V93.6406H417.305L417.797 99.0547ZM416.859 105.453L415.008 105.5C415.008 103.562 415.242 101.836 415.711 100.32C416.18 98.7891 416.844 97.4922 417.703 96.4297C418.562 95.3672 419.586 94.5625 420.773 94.0156C421.977 93.4531 423.312 93.1719 424.781 93.1719C425.953 93.1719 427.023 93.3438 427.992 93.6875C428.977 94.0312 429.82 94.5859 430.523 95.3516C431.242 96.1172 431.789 97.1328 432.164 98.3984C432.555 99.6484 432.75 101.195 432.75 103.039V119H424.805V103.016C424.805 102 424.664 101.227 424.383 100.695C424.102 100.148 423.695 99.7734 423.164 99.5703C422.633 99.3672 421.984 99.2656 421.219 99.2656C420.406 99.2656 419.719 99.4219 419.156 99.7344C418.594 100.047 418.141 100.484 417.797 101.047C417.469 101.594 417.227 102.242 417.07 102.992C416.93 103.742 416.859 104.562 416.859 105.453ZM450.492 93.6406V99.125H435.211V93.6406H450.492ZM438.422 87.3359H446.32V110.727C446.32 111.398 446.398 111.922 446.555 112.297C446.711 112.656 446.977 112.914 447.352 113.07C447.742 113.211 448.258 113.281 448.898 113.281C449.352 113.281 449.727 113.273 450.023 113.258C450.32 113.227 450.602 113.188 450.867 113.141V118.789C450.195 119.008 449.492 119.172 448.758 119.281C448.023 119.406 447.242 119.469 446.414 119.469C444.727 119.469 443.281 119.203 442.078 118.672C440.891 118.141 439.984 117.305 439.359 116.164C438.734 115.023 438.422 113.539 438.422 111.711V87.3359ZM466.922 111.875C466.922 111.438 466.773 111.062 466.477 110.75C466.195 110.422 465.695 110.125 464.977 109.859C464.258 109.578 463.25 109.297 461.953 109.016C460.719 108.75 459.555 108.398 458.461 107.961C457.383 107.523 456.438 106.992 455.625 106.367C454.812 105.742 454.172 105 453.703 104.141C453.25 103.281 453.023 102.297 453.023 101.188C453.023 100.109 453.25 99.0938 453.703 98.1406C454.172 97.1719 454.852 96.3203 455.742 95.5859C456.648 94.8359 457.75 94.25 459.047 93.8281C460.344 93.3906 461.82 93.1719 463.477 93.1719C465.758 93.1719 467.727 93.5234 469.383 94.2266C471.039 94.9141 472.312 95.8828 473.203 97.1328C474.109 98.3672 474.562 99.7969 474.562 101.422H466.664C466.664 100.781 466.555 100.234 466.336 99.7812C466.133 99.3281 465.797 98.9844 465.328 98.75C464.859 98.5 464.234 98.375 463.453 98.375C462.906 98.375 462.406 98.4766 461.953 98.6797C461.516 98.8828 461.164 99.1641 460.898 99.5234C460.633 99.8828 460.5 100.305 460.5 100.789C460.5 101.133 460.578 101.445 460.734 101.727C460.906 101.992 461.164 102.242 461.508 102.477C461.852 102.695 462.289 102.898 462.82 103.086C463.352 103.258 463.992 103.414 464.742 103.555C466.445 103.867 468.039 104.312 469.523 104.891C471.008 105.469 472.211 106.289 473.133 107.352C474.07 108.414 474.539 109.844 474.539 111.641C474.539 112.766 474.281 113.805 473.766 114.758C473.25 115.695 472.508 116.523 471.539 117.242C470.57 117.945 469.406 118.492 468.047 118.883C466.688 119.273 465.156 119.469 463.453 119.469C461.031 119.469 458.984 119.039 457.312 118.18C455.641 117.305 454.375 116.211 453.516 114.898C452.672 113.57 452.25 112.227 452.25 110.867H459.609C459.641 111.648 459.828 112.289 460.172 112.789C460.531 113.289 461.008 113.656 461.602 113.891C462.195 114.125 462.883 114.242 463.664 114.242C464.383 114.242 464.977 114.141 465.445 113.938C465.93 113.734 466.297 113.461 466.547 113.117C466.797 112.758 466.922 112.344 466.922 111.875Z" fill="black"/>
<path d="M1131 0H1345C1353.28 0 1360 6.71573 1360 15V148C1360 156.284 1353.28 163 1345 163H1131V0Z" fill="#0095FF"/>
<path d="M1270.5 81.5V97.125C1270.5 103.018 1270.5 105.964 1268.67 107.794C1266.84 109.625 1263.89 109.625 1258 109.625H1228.31C1224 109.625 1220.5 106.127 1220.5 101.812V101.812C1220.5 97.4978 1224 94 1228.31 94H1258C1263.89 94 1266.84 94 1268.67 92.1694C1270.5 90.3388 1270.5 87.3926 1270.5 81.5V65.875C1270.5 59.9824 1270.5 57.0362 1268.67 55.2056C1266.84 53.375 1263.89 53.375 1258 53.375H1233C1227.11 53.375 1224.16 53.375 1222.33 55.2056C1220.5 57.0362 1220.5 59.9824 1220.5 65.875V101.812" stroke="white" stroke-width="6.25"/>
<path d="M1236.12 69L1254.88 69" stroke="white" stroke-width="6.25" stroke-linecap="round"/>
</svg>
